<svg width="64" height="64" viewBox="0 0 64 64" fill="none" xmlns="http://www.w3.org/2000/svg">
<path d="M32.3636 47.3895L34.366 49.9997C35.6001 49.7102 36.8273 49.3172 38.0366 48.8163C39.2459 48.3153 40.3915 47.7255 41.469 47.0576L41.0391 43.7961C41.9399 43.1488 42.8003 42.4202 43.6102 41.6103C44.4201 40.8004 45.1487 39.94 45.796 39.0392L49.0576 39.4691C49.7255 38.3917 50.3153 37.2461 50.8163 36.0367C51.3172 34.8274 51.7102 33.6003 51.9997 32.3661L49.3899 30.3634C49.5691 29.2687 49.6623 28.1451 49.6623 26.9998C49.6623 25.8544 49.5691 24.7308 49.3899 23.6362L52 21.6338C51.7105 20.3996 51.3175 19.1725 50.8165 17.9631C50.3156 16.7538 49.7258 15.6082 49.0578 14.5308L45.7961 14.9605C45.1488 14.0597 44.4202 13.1993 43.6103 12.3894C42.8004 11.5795 41.94 10.8509 41.0393 10.2036L41.469 6.94216C40.3915 6.27419 39.2459 5.68438 38.0366 5.18346C36.8273 4.68253 35.6001 4.28952 34.3659 4L32.3636 6.61002C31.2689 6.4308 30.1453 6.33761 29 6.33761C27.8546 6.33761 26.731 6.4308 25.6363 6.61002L23.6339 4C22.3997 4.28952 21.1726 4.68253 19.9633 5.18346C18.754 5.68438 17.6083 6.27419 16.5309 6.94217L16.9605 10.2037C16.0597 10.8511 15.1994 11.5797 14.3895 12.3896C13.5796 13.1994 12.851 14.0598 12.2037 14.9606L8.94216 14.531C8.27419 15.6085 7.68438 16.7541 7.18346 17.9634C6.68253 19.1728 6.28952 20.3999 6 21.6341L8.61038 23.6362C8.43117 24.7308 8.33797 25.8544 8.33797 26.9998C8.33797 28.1451 8.43117 29.2687 8.61038 30.3634L6.00028 32.3658C6.2898 33.6 6.68281 34.8271 7.18374 36.0364C7.68466 37.2458 8.27447 38.3914 8.94245 39.4688L12.2038 39.0391C12.8511 39.9399 13.5797 40.8002 14.3896 41.6101C15.1995 42.42 16.0599 43.1486 16.9606 43.7959L16.5309 47.0576C17.6083 47.7255 18.7539 48.3153 19.9633 48.8163C21.1726 49.3172 22.3998 49.7102 23.6339 49.9997L25.6364 47.3895" stroke="#EE2D2A" stroke-width="1.5" stroke-linecap="round" stroke-linejoin="round"/>
<circle cx="29" cy="27" r="17" stroke="#EE2D2A" stroke-width="1.5"/>
<path d="M30 56V60H28V56L29 50L30 56Z" fill="#EE2D2A"/>
<path d="M29 44.5V50M29 50L30 56V60H28V56L29 50Z" stroke="#EE2D2A" stroke-width="1.5" stroke-linecap="round" stroke-linejoin="round"/>
<path d="M29.0002 14.2499C34.0974 14.2499 38.4961 17.241 40.5366 21.5639M23.0698 15.7101C23.8493 15.2998 24.6764 14.9679 25.5408 14.7248" stroke="white" stroke-width="1.5" stroke-linecap="round" stroke-linejoin="round"/>
<path d="M8 56L14.0825 41.8074M48 48L34 33L20 28L15.9614 37.4233" stroke="#EE2D2A" stroke-width="1.5" stroke-linecap="round" stroke-linejoin="round"/>
<circle cx="8" cy="56" r="3.25" fill="black" stroke="#EE2D2A" stroke-width="1.5"/>
<circle cx="34" cy="33" r="3" fill="black" stroke="#EE2D2A" stroke-width="1.5"/>
<circle cx="20" cy="28" r="3" fill="black" stroke="#EE2D2A" stroke-width="1.5"/>
<circle cx="48" cy="48" r="11.25" fill="black" stroke="#EE2D2A" stroke-width="1.5"/>
<mask id="mask0_482_2356" style="mask-type:luminance" maskUnits="userSpaceOnUse" x="38" y="38" width="20" height="20">
<rect x="38" y="38" width="20" height="20" rx="10" fill="white"/>
</mask>
<g mask="url(#mask0_482_2356)">
<path d="M48.0005 50.9999C50.7619 50.9999 53.0004 48.7614 53.0004 46C53.0004 43.2386 50.7619 41 48.0005 41C45.2391 41 43.0005 43.2386 43.0005 46C43.0005 48.7614 45.2391 50.9999 48.0005 50.9999Z" fill="white"/>
<path d="M48 52.3334C52.4319 52.3334 55.9999 54.266 55.9999 56.6667V61H40V56.6667C40 54.266 43.568 52.3334 48 52.3334Z" fill="white"/>
</g>
</svg>
