<svg width="1920" height="600" viewBox="0 0 1920 600" fill="none" xmlns="http://www.w3.org/2000/svg">
<g opacity="0.5">
<path d="M572.991 45.835C504.13 -22.9943 344.64 -21.7784 247.477 101.155C201.971 154.426 128.177 269.328 19.9458 291.292C-115.343 318.747 -267.576 355.382 -299.419 509.294C-329.346 653.946 -208.815 796.548 -49.7484 745.736C52.5508 713.057 271.586 538.235 503.707 718.691C691.882 864.981 960 835.995 960 613.787C960 431.436 709.92 389.639 660.724 303.585C611.528 217.532 684.912 157.704 572.991 45.835Z" fill="#1D213F"/>
<path d="M1836.99 1054.17C1768.13 1122.99 1608.64 1121.78 1511.48 998.845C1465.97 945.574 1392.18 830.672 1283.95 808.708C1148.66 781.253 996.424 744.618 964.581 590.706C934.654 446.054 1055.19 303.452 1214.25 354.264C1316.55 386.943 1535.59 561.765 1767.71 381.309C1955.88 235.019 2224 264.005 2224 486.213C2224 668.564 1973.92 710.361 1924.72 796.415C1875.53 882.468 1948.91 942.296 1836.99 1054.17Z" fill="#1D213F"/>
</g>
</svg>
