<svg width="1920" height="900" viewBox="0 0 1920 900" fill="none" xmlns="http://www.w3.org/2000/svg">
<g opacity="0.5" filter="url(#filter0_f_326_199)">
<path d="M572.991 345.835C504.13 277.006 344.64 278.222 247.477 401.155C201.971 454.426 128.177 569.328 19.9458 591.292C-115.343 618.747 -267.576 655.382 -299.419 809.294C-329.346 953.946 -208.815 1096.55 -49.7484 1045.74C52.5508 1013.06 271.586 838.235 503.707 1018.69C691.882 1164.98 960 1135.99 960 913.787C960 731.436 709.92 689.639 660.724 603.585C611.528 517.532 684.912 457.704 572.991 345.835Z" fill="#1D213F"/>
<path d="M1836.99 1354.17C1768.13 1422.99 1608.64 1421.78 1511.48 1298.84C1465.97 1245.57 1392.18 1130.67 1283.95 1108.71C1148.66 1081.25 996.424 1044.62 964.581 890.706C934.654 746.054 1055.19 603.452 1214.25 654.264C1316.55 686.943 1535.59 861.765 1767.71 681.309C1955.88 535.019 2224 564.005 2224 786.213C2224 968.564 1973.92 1010.36 1924.72 1096.41C1875.53 1182.47 1948.91 1242.3 1836.99 1354.17Z" fill="#1D213F"/>
</g>
<defs>
<filter id="filter0_f_326_199" x="-604" y="0" width="3128" height="1700" filterUnits="userSpaceOnUse" color-interpolation-filters="sRGB">
<feFlood flood-opacity="0" result="BackgroundImageFix"/>
<feBlend mode="normal" in="SourceGraphic" in2="BackgroundImageFix" result="shape"/>
<feGaussianBlur stdDeviation="150" result="effect1_foregroundBlur_326_199"/>
</filter>
</defs>
</svg>
