<svg width="140" height="140" viewBox="0 0 140 140" fill="none" xmlns="http://www.w3.org/2000/svg">
<circle cx="70" cy="70" r="69.5" fill="#EE2D2A" fill-opacity="0.15" stroke="#EE2D2A"/>
<circle cx="70" cy="70" r="50.4651" fill="#EE2D2A" fill-opacity="0.15"/>
<circle cx="70.0001" cy="70" r="28.4884" fill="#EE2D2A" fill-opacity="0.15"/>
<path d="M75.9322 62.2987H63.802C62.4576 62.2628 61.1476 62.7266 60.1251 63.6004C59.1027 64.4741 58.4404 65.6959 58.2663 67.0295C58.2301 67.3319 58.2178 67.6367 58.2295 67.9411C58.2295 71.5875 58.2295 75.2376 58.2295 78.884C58.2295 80.0712 58.3067 81.2254 58.939 82.273C57.5164 82.7913 55.7447 82.0268 54.9691 80.5601C54.5353 79.7441 54.142 78.906 53.734 78.0753C52.298 75.1861 50.8657 72.3018 49.437 69.4224C48.4151 67.3456 49.0694 65.4048 51.1573 64.3755L68.6541 55.7117C69.077 55.4859 69.5416 55.3489 70.0194 55.3092C70.4971 55.2695 70.9779 55.3278 71.4323 55.4807C71.8867 55.6335 72.3051 55.8776 72.6617 56.198C73.0183 56.5184 73.3057 56.9083 73.5062 57.3437C74.2671 58.8545 75.0133 60.3726 75.7631 61.8907C75.8183 62.001 75.8587 62.1223 75.9322 62.2987Z" fill="white"/>
<path d="M87.0038 72.3999H85.2284C85.2075 72.3425 85.1915 72.2835 85.1806 72.2234C85.1365 71.5177 85.1402 71.5214 84.4455 71.5214H62.2473V80.1338C62.2473 81.2108 62.7251 81.696 63.8095 81.696C68.7351 81.696 73.6582 81.696 78.5789 81.696C79.167 81.696 79.1633 81.696 79.1633 82.2804V83.8574C78.9979 83.8574 78.8693 83.8831 78.7443 83.8831H63.758C63.2714 83.9048 62.7856 83.8253 62.3312 83.6497C61.8769 83.4741 61.464 83.2061 61.1185 82.8627C60.773 82.5193 60.5026 82.108 60.3242 81.6547C60.1458 81.2014 60.0634 80.7161 60.0822 80.2293C60.0822 76.1173 60.0822 72.0053 60.0822 67.8933C60.0502 67.0604 60.3172 66.2435 60.835 65.5903C61.3527 64.9371 62.087 64.4906 62.9052 64.3315C63.1905 64.2837 63.48 64.2652 63.769 64.2763C70.3316 64.2763 76.8917 64.2763 83.4493 64.2763C84.2754 64.2509 85.0832 64.523 85.7255 65.0432C86.3678 65.5634 86.8019 66.297 86.9487 67.1104C86.988 67.3386 87.0052 67.57 87.0001 67.8014C87.0038 69.3159 87.0038 70.8377 87.0038 72.3999ZM85.0997 68.1837C85.2505 67.0405 84.7322 66.434 83.6588 66.4304H63.736C62.6332 66.4304 62.0561 67.1655 62.3134 68.1837H85.0997Z" fill="white"/>
<path d="M67.5845 79.553C66.3531 80.5271 65.0813 80.5307 64.1954 79.575C63.8193 79.1567 63.6112 78.614 63.6112 78.0514C63.6112 77.4888 63.8193 76.9461 64.1954 76.5278C65.0813 75.5574 66.3237 75.5574 67.5955 76.5278C68.9445 75.5463 70.1686 75.5574 71.0287 76.5572C71.3995 76.9813 71.5983 77.5286 71.586 78.0918C71.5738 78.655 71.3514 79.1932 70.9625 79.6008C70.073 80.5307 68.8306 80.516 67.5845 79.553Z" fill="white"/>
<path d="M85.1328 77.0608C84.9231 77.0804 84.7283 77.1776 84.5865 77.3333C84.4447 77.489 84.3661 77.692 84.3661 77.9026C84.3661 78.1131 84.4447 78.3162 84.5865 78.4718C84.7283 78.6275 84.9231 78.7247 85.1328 78.7443V77.0608Z" fill="white"/>
<path d="M85.8973 79.608V81.2952C86.1045 81.2715 86.2956 81.1724 86.4344 81.0169C86.5732 80.8613 86.6498 80.6601 86.6498 80.4516C86.6498 80.2432 86.5732 80.042 86.4344 79.8864C86.2956 79.7308 86.1045 79.6318 85.8973 79.608Z" fill="white"/>
<path fill-rule="evenodd" clip-rule="evenodd" d="M90.6134 79.1781C90.6127 80.1863 90.3131 81.1716 89.7524 82.0096C89.1918 82.8475 88.3953 83.5004 87.4636 83.8857C86.5319 84.271 85.5069 84.3715 84.5182 84.1743C83.5295 83.9772 82.6214 83.4913 81.9087 82.7782C81.1961 82.065 80.7109 81.1566 80.5144 80.1677C80.318 79.1788 80.4192 78.1539 80.8052 77.2225C81.1912 76.2911 81.8446 75.4951 82.683 74.935C83.5213 74.375 84.5069 74.0761 85.5151 74.076C86.1849 74.076 86.8482 74.208 87.467 74.4645C88.0858 74.7209 88.648 75.0968 89.1215 75.5706C89.5949 76.0444 89.9704 76.6069 90.2264 77.2259C90.4824 77.8449 90.6139 78.5082 90.6134 79.1781ZM85.5151 75.7338C85.6126 75.7338 85.7061 75.7726 85.775 75.8415C85.8439 75.9104 85.8827 76.0039 85.8827 76.1014V76.2632C86.2943 76.3065 86.6768 76.4955 86.9613 76.7962C87.2457 77.0968 87.4133 77.4892 87.4339 77.9026C87.4339 78.004 87.3936 78.1012 87.3219 78.1729C87.2502 78.2446 87.153 78.2848 87.0516 78.2848C86.9502 78.2848 86.853 78.2446 86.7813 78.1729C86.7096 78.1012 86.6693 78.004 86.6693 77.9026C86.65 77.6985 86.565 77.5061 86.4272 77.3544C86.2893 77.2026 86.106 77.0996 85.9047 77.0608V78.8289C86.3218 78.8487 86.7152 79.0284 87.0033 79.3305C87.2914 79.6327 87.4522 80.0342 87.4522 80.4517C87.4522 80.8693 87.2914 81.2708 87.0033 81.5729C86.7152 81.8751 86.3218 82.0547 85.9047 82.0746V82.2363C85.9047 82.3377 85.8645 82.435 85.7928 82.5067C85.7211 82.5783 85.6238 82.6186 85.5224 82.6186C85.4211 82.6186 85.3238 82.5783 85.2521 82.5067C85.1804 82.435 85.1402 82.3377 85.1402 82.2363V82.0746C84.733 82.0299 84.355 81.842 84.0736 81.5444C83.7922 81.2468 83.6256 80.8589 83.6037 80.4499C83.6037 80.3485 83.6439 80.2513 83.7156 80.1796C83.7873 80.1079 83.8846 80.0676 83.986 80.0676C84.0873 80.0676 84.1846 80.1079 84.2563 80.1796C84.328 80.2513 84.3682 80.3485 84.3682 80.4499C84.3882 80.6538 84.4733 80.8458 84.611 80.9975C84.7488 81.1491 84.9318 81.2523 85.1328 81.2917V79.5273C84.7208 79.4995 84.3347 79.3163 84.0527 79.0147C83.7707 78.713 83.6138 78.3155 83.6138 77.9026C83.6138 77.4896 83.7707 77.0921 84.0527 76.7905C84.3347 76.4888 84.7208 76.3056 85.1328 76.2779V76.1161C85.1307 76.0654 85.1392 76.0147 85.1577 75.9674C85.1762 75.9201 85.2042 75.8771 85.2402 75.8412C85.2761 75.8053 85.3191 75.7772 85.3664 75.7587C85.4137 75.7402 85.4643 75.7318 85.5151 75.7338Z" fill="white"/>
</svg>
