<svg width="64" height="64" viewBox="0 0 64 64" fill="none" xmlns="http://www.w3.org/2000/svg">
<path d="M12.3021 27.3141L11.9975 27.1788L11.6929 27.3141L4.79384 30.3804C5.59265 16.7493 16.4106 5.80945 29.9893 4.81953L33.1795 11.9975L29.8787 19.4243C24.3487 20.3506 20.0254 24.8344 19.3426 30.4433L12.3021 27.3141ZM51.6979 36.6859L52.0025 36.8212L52.3071 36.6859L59.2062 33.6196C58.4074 47.2507 47.5894 58.1906 34.0107 59.1805L30.8205 52.0025L34.1213 44.5757C39.6513 43.6494 43.9746 39.1656 44.6574 33.5568L51.6979 36.6859ZM36.6859 12.3021L36.8212 11.9975L36.6859 11.6929L33.6196 4.79384C47.2507 5.59265 58.1906 16.4106 59.1805 29.9893L52.0025 33.1795L44.5757 29.8787C43.6494 24.3487 39.1656 20.0254 33.5568 19.3426L36.6859 12.3021ZM27.3141 51.6979L27.1788 52.0025L27.3141 52.3071L30.3804 59.2062C16.7493 58.4074 5.80945 47.5894 4.81953 34.0107L11.9975 30.8205L19.4243 34.1213C20.3506 39.6513 24.8344 43.9746 30.4432 44.6574L27.3141 51.6979Z" fill="black" stroke="#EE2D2A" stroke-width="1.5"/>
<path d="M26.064 35.096C25.504 35.096 25.008 34.9733 24.576 34.728C24.1493 34.4773 23.8133 34.136 23.568 33.704C23.3227 33.2667 23.2 32.7653 23.2 32.2C23.2 31.6347 23.3227 31.136 23.568 30.704C23.8133 30.2667 24.1493 29.9253 24.576 29.68C25.008 29.4293 25.504 29.304 26.064 29.304C26.496 29.304 26.8853 29.3787 27.232 29.528C27.5787 29.6773 27.8773 29.8853 28.128 30.152C28.3787 30.4187 28.5707 30.728 28.704 31.08L27.296 31.528C27.2213 31.352 27.1253 31.2 27.008 31.072C26.8907 30.9387 26.752 30.8373 26.592 30.768C26.4373 30.6987 26.2613 30.664 26.064 30.664C25.8027 30.664 25.5707 30.7307 25.368 30.864C25.1653 30.992 25.0053 31.1707 24.888 31.4C24.776 31.6293 24.72 31.896 24.72 32.2C24.72 32.4987 24.7787 32.7653 24.896 33C25.0133 33.2293 25.1733 33.4107 25.376 33.544C25.584 33.672 25.8213 33.736 26.088 33.736C26.296 33.736 26.4747 33.7013 26.624 33.632C26.7787 33.5573 26.9093 33.456 27.016 33.328C27.128 33.1947 27.224 33.04 27.304 32.864L28.712 33.312C28.584 33.664 28.3947 33.976 28.144 34.248C27.8933 34.5147 27.592 34.7227 27.24 34.872C26.888 35.0213 26.496 35.096 26.064 35.096ZM29.3159 35V29.4H31.6359C32.0573 29.4 32.4306 29.4827 32.7559 29.648C33.0813 29.808 33.3346 30.032 33.5159 30.32C33.7026 30.6027 33.7959 30.9307 33.7959 31.304C33.7959 31.6773 33.7026 32.0107 33.5159 32.304C33.3346 32.592 33.0813 32.8187 32.7559 32.984C32.4306 33.144 32.0573 33.224 31.6359 33.224H30.7959V35H29.3159ZM32.3239 35L31.0759 32.8L32.1879 31.968L34.0199 35H32.3239ZM30.7959 31.864H31.5559C31.6893 31.864 31.8066 31.84 31.9079 31.792C32.0093 31.744 32.0893 31.6773 32.1479 31.592C32.2066 31.5067 32.2359 31.4107 32.2359 31.304C32.2359 31.144 32.1719 31.0133 32.0439 30.912C31.9213 30.8053 31.7586 30.752 31.5559 30.752H30.7959V31.864ZM34.6206 35V29.4H36.2606L37.6126 31.4L38.9646 29.4H40.6046V35H39.1246V31.688L37.6206 33.88L36.1006 31.688V35H34.6206Z" fill="white"/>
</svg>
