<svg width="64" height="64" viewBox="0 0 64 64" fill="none" xmlns="http://www.w3.org/2000/svg">
<path d="M54 57C54 58.6569 52.6569 60 51 60H13C11.3431 60 10 58.6569 10 57V51M54 7C54 5.34315 52.6569 4 51 4H13C11.3431 4 10 5.34314 10 7V30M54 34V36M36 53H56C56.5523 53 57 52.5523 57 52V41C57 40.4477 56.5523 40 56 40H36C35.4477 40 35 40.4477 35 41V52C35 52.5523 35.4477 53 36 53ZM5 47H30C30.5523 47 31 46.5523 31 46V35C31 34.4477 30.5523 34 30 34H5C4.44772 34 4 34.4477 4 35V46C4 46.5523 4.44771 47 5 47ZM15 30H59C59.5523 30 60 29.5523 60 29V11C60 10.4477 59.5523 10 59 10H15C14.4477 10 14 10.4477 14 11V29C14 29.5523 14.4477 30 15 30Z" stroke="#EE2D2A" stroke-width="1.5" stroke-linecap="square"/>
<path d="M35 35H50M14 55H32M18 21H32M18 24.5H32M18 15H28V16.5H18V15Z" stroke="white" stroke-width="1.5" stroke-linecap="round" stroke-linejoin="round"/>
<path d="M56.8307 25.5079L50.9172 17.5258C50.3978 16.8247 49.0306 16.8247 48.5112 17.5258L44.1692 23.3867L42.682 21.4706C42.156 20.7928 40.8287 20.7928 40.3026 21.4706L37.1825 25.4906C36.6606 26.1631 37.3202 27 38.3724 27H55.6278C56.6679 27 57.3288 26.1803 56.8307 25.5079Z" fill="#EE2D2A"/>
<path d="M41 15C41 16.1046 40.1046 17 39 17C37.8954 17 37 16.1046 37 15C37 13.8954 37.8954 13 39 13C40.1046 13 41 13.8954 41 15Z" fill="white"/>
</svg>
