<svg width="64" height="64" viewBox="0 0 64 64" fill="none" xmlns="http://www.w3.org/2000/svg">
<path d="M58.6818 30.56H57.2818C55.3818 17.25 44.6318 7 31.6718 7C18.7118 7 7.97178 17.25 6.06178 30.56H4.42178C3.48363 30.5939 2.5971 30.998 1.95617 31.6839C1.31524 32.3699 0.972078 33.2817 1.00178 34.22V43.55C0.972078 44.4883 1.31524 45.4001 1.95617 46.0861C2.5971 46.772 3.48363 47.1761 4.42178 47.21H9.42178C10.3599 47.1761 11.2465 46.772 11.8874 46.0861C12.5283 45.4001 12.8715 44.4883 12.8418 43.55V34.22C12.8715 33.2817 12.5283 32.3699 11.8874 31.6839C11.2465 30.998 10.3599 30.5939 9.42178 30.56H8.36178C10.2418 18.56 19.9518 9.44 31.6718 9.44C43.3918 9.44 53.1118 18.58 54.9818 30.56H53.6718C52.7336 30.5939 51.8471 30.998 51.2062 31.6839C50.5652 32.3699 50.2221 33.2817 50.2518 34.22V43.55C50.2221 44.4883 50.5652 45.4001 51.2062 46.0861C51.8471 46.772 52.7336 47.1761 53.6718 47.21H55.1218V51.77H46.6718C46.5697 51.0779 46.229 50.4433 45.7086 49.9759C45.1882 49.5084 44.5208 49.2375 43.8218 49.21H40.2418C39.8469 49.2229 39.4584 49.3137 39.0987 49.4771C38.739 49.6406 38.4151 49.8735 38.1456 50.1625C37.8761 50.4514 37.6664 50.7908 37.5285 51.161C37.3905 51.5313 37.3271 51.9252 37.3418 52.32V53.46C37.3271 53.8548 37.3905 54.2487 37.5285 54.619C37.6664 54.9892 37.8761 55.3286 38.1456 55.6175C38.4151 55.9065 38.739 56.1394 39.0987 56.3029C39.4584 56.4663 39.8469 56.5571 40.2418 56.57H43.8218C44.4853 56.5431 45.1212 56.2968 45.6297 55.8697C46.1382 55.4426 46.4907 54.8589 46.6318 54.21H57.4018V47.21H58.6818C59.6199 47.1761 60.5065 46.772 61.1474 46.0861C61.7883 45.4001 62.1315 44.4883 62.1018 43.55V34.22C62.1315 33.2817 61.7883 32.3699 61.1474 31.6839C60.5065 30.998 59.6199 30.5939 58.6818 30.56Z" fill="#EE2D2A"/>
<path d="M45.8142 32.2867C44.8142 27.6167 43.8142 19.7667 37.3542 20.1067C32.1742 20.5567 20.9842 17.9067 19.5142 25.3367C18.6542 29.1067 15.3742 37.5267 22.4142 37.1067C25.7742 44.7467 37.9142 44.7467 41.2742 37.1067C41.9168 37.1984 42.5719 37.1343 43.1846 36.9198C43.7972 36.7053 44.3492 36.3467 44.7943 35.8742C45.2393 35.4017 45.5643 34.8292 45.7418 34.2048C45.9193 33.5805 45.9441 32.9227 45.8142 32.2867ZM40.8742 25.3867C41.2057 25.3867 41.5237 25.5184 41.7581 25.7528C41.9925 25.9872 42.1242 26.3052 42.1242 26.6367C42.1242 26.9682 41.9925 27.2862 41.7581 27.5206C41.5237 27.755 41.2057 27.8867 40.8742 27.8867C40.5427 27.8867 40.2247 27.755 39.9903 27.5206C39.7559 27.2862 39.6242 26.9682 39.6242 26.6367C39.6242 26.3052 39.7559 25.9872 39.9903 25.7528C40.2247 25.5184 40.5427 25.3867 40.8742 25.3867ZM38.3642 22.8767C38.6777 22.9047 38.9694 23.0491 39.1818 23.2813C39.3942 23.5136 39.5121 23.817 39.5121 24.1317C39.5121 24.4465 39.3942 24.7498 39.1818 24.9821C38.9694 25.2144 38.6777 25.3587 38.3642 25.3867C38.0507 25.3587 37.759 25.2144 37.5466 24.9821C37.3341 24.7498 37.2163 24.4465 37.2163 24.1317C37.2163 23.817 37.3341 23.5136 37.5466 23.2813C37.759 23.0491 38.0507 22.9047 38.3642 22.8767ZM38.3642 27.8767C38.6777 27.9047 38.9694 28.0491 39.1818 28.2813C39.3942 28.5136 39.5121 28.8169 39.5121 29.1317C39.5121 29.4465 39.3942 29.7498 39.1818 29.9821C38.9694 30.2144 38.6777 30.3587 38.3642 30.3867C38.0599 30.3481 37.7801 30.1999 37.5773 29.9698C37.3745 29.7396 37.2626 29.4434 37.2626 29.1367C37.2626 28.83 37.3745 28.5338 37.5773 28.3036C37.7801 28.0735 38.0599 27.9253 38.3642 27.8867V27.8767ZM35.8542 25.3767C36.1857 25.3767 36.5037 25.5084 36.7381 25.7428C36.9725 25.9772 37.1042 26.2952 37.1042 26.6267C37.1042 26.9582 36.9725 27.2762 36.7381 27.5106C36.5037 27.745 36.1857 27.8767 35.8542 27.8767C35.5433 27.8488 35.254 27.7056 35.0434 27.4752C34.8327 27.2448 34.7159 26.9439 34.7159 26.6317C34.7159 26.3195 34.8327 26.0186 35.0434 25.7882C35.254 25.5578 35.5433 25.4146 35.8542 25.3867V25.3767ZM21.7042 25.6267H23.9542V23.3467H25.9542V25.6367H28.2342V27.6367H25.9542V29.9267H23.9542V27.6267H21.7042V25.6267ZM31.8442 40.5767C30.3355 40.5805 28.8555 40.1644 27.5698 39.375C26.2841 38.5855 25.2434 37.4539 24.5642 36.1067C25.3613 35.1574 26.0929 34.1551 26.7542 33.1067C27.4442 31.2467 33.8042 32.4067 35.2042 32.1067C37.2042 32.1067 37.8042 35.1067 39.1242 36.1067C38.4441 37.4532 37.4032 38.5842 36.1177 39.3735C34.8322 40.1628 33.3527 40.5794 31.8442 40.5767Z" fill="#EE2D2A"/>
<path d="M25.9841 23.3467H23.9941V29.9167H25.9841V23.3467Z" fill="white"/>
<path d="M21.7041 25.6467V27.6367H28.2741V25.6467H21.7041Z" fill="white"/>
<path d="M38.3642 25.4167C39.0767 25.4167 39.6542 24.8391 39.6542 24.1267C39.6542 23.4142 39.0767 22.8367 38.3642 22.8367C37.6518 22.8367 37.0742 23.4142 37.0742 24.1267C37.0742 24.8391 37.6518 25.4167 38.3642 25.4167Z" fill="white"/>
<path d="M40.874 27.9267C41.5864 27.9267 42.164 27.3491 42.164 26.6367C42.164 25.9242 41.5864 25.3467 40.874 25.3467C40.1615 25.3467 39.584 25.9242 39.584 26.6367C39.584 27.3491 40.1615 27.9267 40.874 27.9267Z" fill="white"/>
<path d="M38.3642 30.4367C39.0767 30.4367 39.6542 29.8591 39.6542 29.1467C39.6542 28.4342 39.0767 27.8567 38.3642 27.8567C37.6518 27.8567 37.0742 28.4342 37.0742 29.1467C37.0742 29.8591 37.6518 30.4367 38.3642 30.4367Z" fill="white"/>
<path d="M35.854 27.9267C36.5664 27.9267 37.144 27.3491 37.144 26.6367C37.144 25.9242 36.5664 25.3467 35.854 25.3467C35.1415 25.3467 34.564 25.9242 34.564 26.6367C34.564 27.3491 35.1415 27.9267 35.854 27.9267Z" fill="white"/>
</svg>
