<svg width="140" height="140" viewBox="0 0 140 140" fill="none" xmlns="http://www.w3.org/2000/svg">
<circle cx="70" cy="70" r="69.5" fill="#EE2D2A" fill-opacity="0.15" stroke="#EE2D2A"/>
<circle cx="70" cy="70" r="50.4651" fill="#EE2D2A" fill-opacity="0.15"/>
<circle cx="70" cy="70" r="28.4884" fill="#EE2D2A" fill-opacity="0.15"/>
<path d="M60.0017 82.9579C59.8951 79.0577 61.3728 76.0104 64.6444 74.0107C68.0851 71.9044 71.6691 71.9301 75.084 74.0952C78.2674 76.117 79.6642 79.146 79.6054 82.9579H60.0017Z" fill="#F3F7FB"/>
<path d="M69.7172 71.1728C68.538 71.1563 67.3902 70.7897 66.4198 70.1194C65.4495 69.4492 64.7003 68.5056 64.2674 67.4085C63.8346 66.3115 63.7377 65.1105 63.989 63.9582C64.2404 62.806 64.8286 61.7544 65.679 60.9373C66.5293 60.1201 67.6034 59.5742 68.7648 59.3689C69.9261 59.1636 71.1223 59.3082 72.2012 59.7843C73.2802 60.2605 74.1933 61.0466 74.8244 62.0429C75.4555 63.0392 75.7762 64.2006 75.7457 65.3795C75.709 66.9454 75.0547 68.4332 73.9253 69.5185C72.796 70.6038 71.2833 71.1984 69.7172 71.1728Z" fill="#F3F7FB"/>
<path d="M67.1698 71.7646C65.0433 72.3265 63.127 73.4967 61.6559 75.1318C60.5044 76.3984 59.6869 77.9322 59.2776 79.5943C59.1416 80.1494 58.9357 80.3847 58.3218 80.3736C56.4324 80.3332 54.5356 80.3332 52.6425 80.3736C52.0213 80.3736 51.9073 80.1641 51.9073 79.587C51.9073 73.1504 58.3182 68.3534 64.479 70.2796C65.3796 70.5516 66.1405 71.1838 67.1698 71.7646Z" fill="#F3F7FB"/>
<path d="M72.566 71.7757C75.7126 69.2577 79.043 69.2908 82.366 70.9817C85.7479 72.702 87.4462 75.6244 87.6704 79.4142C87.7108 80.1274 87.5234 80.3994 86.7514 80.3737C84.8877 80.3185 83.0204 80.3442 81.153 80.3737C81.0576 80.3909 80.9596 80.3881 80.8653 80.3654C80.7711 80.3426 80.6826 80.3006 80.6055 80.2418C80.5284 80.183 80.4643 80.1088 80.4175 80.0239C80.3706 79.939 80.3419 79.8453 80.3333 79.7487C79.2746 75.8192 76.7933 73.2166 72.93 71.9227C72.8344 71.8933 72.7315 71.8455 72.566 71.7757Z" fill="#F3F7FB"/>
<path d="M66.4456 59.0092C63.0393 61.2956 62.0088 64.3467 63.3542 68.1623C61.2332 69.2136 57.9285 67.927 56.5611 65.5413C55.7956 64.2316 55.5609 62.6784 55.9052 61.201C56.2495 59.7236 57.1467 58.4342 58.4123 57.5978C59.6779 56.7614 61.2159 56.4416 62.71 56.7041C64.2041 56.9667 65.5409 57.7915 66.4456 59.0092Z" fill="#F3F7FB"/>
<path d="M73.1763 59.035C74.4628 56.7964 77.9917 55.9472 80.5281 57.2375C81.9037 57.9255 82.9595 59.1193 83.4742 60.5688C83.9889 62.0182 83.9224 63.6106 83.2887 65.012C82.0904 67.7102 78.8262 69.2099 76.2089 68.2174C77.569 64.3798 76.5618 61.2994 73.1763 59.035Z" fill="#F3F7FB"/>
</svg>
