<svg width="140" height="140" viewBox="0 0 140 140" fill="none" xmlns="http://www.w3.org/2000/svg">
<circle cx="70" cy="70" r="69.5" fill="#EE2D2A" fill-opacity="0.15" stroke="#EE2D2A"/>
<circle cx="70" cy="70" r="50.4651" fill="#EE2D2A" fill-opacity="0.15"/>
<circle cx="70" cy="70" r="28.4884" fill="#EE2D2A" fill-opacity="0.15"/>
<path d="M78.2885 80.2518C77.8217 80.6709 77.41 81.0899 76.9505 81.4428C76.4175 81.8582 75.9911 81.5494 75.5978 81.1524C74.1275 79.6821 72.6572 78.2118 71.1868 76.7414C70.9801 76.5279 70.7089 76.3884 70.4149 76.3445C70.2944 76.363 70.1806 76.4123 70.0847 76.4877C69.9887 76.563 69.9138 76.6618 69.8672 76.7745C69.8396 77.0631 69.9268 77.351 70.1098 77.5759C71.3008 78.8146 72.5212 80.0276 73.7452 81.2517C74.0429 81.5494 74.3774 81.8104 74.6642 82.0603C73.8555 83.5968 72.6425 83.7953 71.5397 82.6889C70.4958 81.6376 69.4408 80.5937 68.3969 79.5387C68.0293 79.1712 67.6434 78.8844 67.1949 79.3513C66.7465 79.8181 67.0516 80.1673 67.3971 80.5055L70.7568 83.8137C69.8819 84.9164 68.2021 84.9164 67.081 83.8137C65.5188 82.2772 63.9859 80.715 62.4384 79.1638C60.81 77.5281 59.1706 75.9034 57.5717 74.2382C57.3551 73.9667 57.2547 73.6205 57.2923 73.2752C57.6783 70.3566 58.1083 67.4417 58.5384 64.5304C58.7112 63.3836 58.5605 63.5637 59.7036 63.5527C61.0894 63.5527 62.4752 63.5527 64.0153 63.5527C63.8279 63.8247 63.7286 63.9937 63.6037 64.1445C63.0817 64.7804 62.5781 65.4383 62.0157 66.0375C60.0418 68.1401 61.8062 70.5183 63.8021 70.7756C64.5887 70.8853 65.39 70.7573 66.1032 70.408C67.5414 69.5669 68.9261 68.6376 70.2495 67.6254C70.6943 67.302 70.9075 67.2064 71.3339 67.6254C74.6127 70.9459 77.9074 74.2541 81.2181 77.5501C81.6519 77.9802 81.6997 78.3184 81.2181 78.708C81.0931 78.8146 80.9865 78.9433 80.8505 79.0572C80.1154 79.7262 79.7919 79.7336 79.0531 79.0131C77.7555 77.7486 76.48 76.44 75.1971 75.1792C74.7634 74.7492 74.3223 74.3191 73.8959 73.8817C73.5283 73.5141 73.1608 73.4075 72.7932 73.7971C72.4256 74.1868 72.6057 74.5323 72.9182 74.8521C74.5159 76.4547 76.1088 78.0562 77.6967 79.6564C77.8768 79.796 78.0275 79.9688 78.2885 80.2518Z" fill="#F3F7FB"/>
<path d="M80.1558 74.5287L74.6421 69.015C73.6606 68.0335 72.6829 67.0484 71.7014 66.0743C70.9258 65.3024 70.7494 65.2914 69.9554 66.0229C68.6146 67.3091 67.0896 68.3882 65.4305 69.2245C65.1082 69.4012 64.7447 69.4892 64.3773 69.4795C64.0098 69.4699 63.6515 69.3628 63.339 69.1694C62.4384 68.629 62.295 67.8608 62.9714 67.0558C64.1917 65.5854 65.4084 64.1151 66.6472 62.6816C67.338 61.8636 68.278 61.2948 69.3231 61.0625C70.3681 60.8301 71.4606 60.9469 72.4329 61.395C75.0578 62.6334 77.8974 63.3524 80.7954 63.5123C81.2732 63.5343 81.4386 63.7292 81.5011 64.1776C81.8687 66.7507 82.2363 69.3017 82.6039 71.8674C82.6183 71.9775 82.61 72.0894 82.5797 72.1962C82.5494 72.303 82.4976 72.4025 82.4274 72.4886C81.707 73.1576 80.9608 73.8045 80.1558 74.5287Z" fill="#F3F7FB"/>
<path d="M51.1721 74.9367V61.5531H57.5459C57.4356 62.3434 57.3364 63.0822 57.2261 63.8211C56.7188 67.3168 56.1969 70.8051 55.7154 74.3081C55.6418 74.8338 55.4397 74.9588 54.9471 74.9441C53.7084 74.9147 52.4659 74.9367 51.1721 74.9367Z" fill="#F3F7FB"/>
<path d="M88.408 74.9257C87.1913 74.9257 86.0151 74.9257 84.8425 74.9257C84.372 74.9257 84.4014 74.6022 84.3609 74.3082C83.9787 71.6714 83.5988 69.0371 83.2214 66.4052C83.023 65.0304 82.8171 63.6557 82.6186 62.2809C82.5855 62.053 82.5635 61.8215 82.5304 61.5458H88.4117L88.408 74.9257Z" fill="#F3F7FB"/>
</svg>
