<svg width="64" height="64" viewBox="0 0 64 64" fill="none" xmlns="http://www.w3.org/2000/svg">
<mask id="path-1-inside-1_482_2415" fill="white">
<path d="M4 10C4 8.34315 5.34315 7 7 7H45C46.6569 7 48 8.34315 48 10V36C48 37.6569 46.6569 39 45 39H7C5.34315 39 4 37.6569 4 36V10Z"/>
</mask>
<path d="M4 10C4 8.34315 5.34315 7 7 7H45C46.6569 7 48 8.34315 48 10V36C48 37.6569 46.6569 39 45 39H7C5.34315 39 4 37.6569 4 36V10Z" fill="black"/>
<path d="M2.5 7C2.5 4.51472 4.51472 2.5 7 2.5H45C47.4853 2.5 49.5 4.51472 49.5 7L46.5 11.5C46.5 11.5 45.8284 11.5 45 11.5H7C6.17157 11.5 5.5 11.5 5.5 11.5L2.5 7ZM49.5 36C49.5 38.4853 47.4853 40.5 45 40.5H7C4.51472 40.5 2.5 38.4853 2.5 36H5.5C5.5 36.8284 6.17157 37.5 7 37.5H45C45.8284 37.5 46.5 36.8284 46.5 36H49.5ZM7 40.5C4.51472 40.5 2.5 38.4853 2.5 36V7C2.5 4.51472 4.51472 2.5 7 2.5V11.5C6.17157 11.5 5.5 11.5 5.5 11.5V36C5.5 36.8284 6.17157 37.5 7 37.5V40.5ZM45 2.5C47.4853 2.5 49.5 4.51472 49.5 7V36C49.5 38.4853 47.4853 40.5 45 40.5V37.5C45.8284 37.5 46.5 36.8284 46.5 36V11.5C46.5 11.5 45.8284 11.5 45 11.5V2.5Z" fill="#EE2D2A" mask="url(#path-1-inside-1_482_2415)"/>
<rect x="10" y="17" width="28" height="2" rx="1" fill="white"/>
<mask id="path-4-inside-2_482_2415" fill="white">
<path d="M16 28C16 26.3431 17.3431 25 19 25H57C58.6569 25 60 26.3431 60 28V54C60 55.6569 58.6569 57 57 57H19C17.3431 57 16 55.6569 16 54V28Z"/>
</mask>
<path d="M16 28C16 26.3431 17.3431 25 19 25H57C58.6569 25 60 26.3431 60 28V54C60 55.6569 58.6569 57 57 57H19C17.3431 57 16 55.6569 16 54V28Z" fill="black"/>
<path d="M14.5 25C14.5 22.5147 16.5147 20.5 19 20.5H57C59.4853 20.5 61.5 22.5147 61.5 25L58.5 29.5C58.5 29.5 57.8284 29.5 57 29.5H19C18.1716 29.5 17.5 29.5 17.5 29.5L14.5 25ZM61.5 54C61.5 56.4853 59.4853 58.5 57 58.5H19C16.5147 58.5 14.5 56.4853 14.5 54H17.5C17.5 54.8284 18.1716 55.5 19 55.5H57C57.8284 55.5 58.5 54.8284 58.5 54H61.5ZM19 58.5C16.5147 58.5 14.5 56.4853 14.5 54V25C14.5 22.5147 16.5147 20.5 19 20.5V29.5C18.1716 29.5 17.5 29.5 17.5 29.5V54C17.5 54.8284 18.1716 55.5 19 55.5V58.5ZM57 20.5C59.4853 20.5 61.5 22.5147 61.5 25V54C61.5 56.4853 59.4853 58.5 57 58.5V55.5C57.8284 55.5 58.5 54.8284 58.5 54V29.5C58.5 29.5 57.8284 29.5 57 29.5V20.5Z" fill="#EE2D2A" mask="url(#path-4-inside-2_482_2415)"/>
<path fill-rule="evenodd" clip-rule="evenodd" d="M32.5736 38.3187C33.0578 37.8298 33.0578 37.038 32.5736 36.5491L32.5573 36.5325C32.073 36.0436 31.2885 36.0436 30.8042 36.5325L26.3632 41.0143C25.8789 41.5031 25.8789 42.2965 26.3632 42.7854L30.8042 47.2669C31.2885 47.7557 32.073 47.7557 32.5573 47.2669L32.5736 47.2505C33.0578 46.7617 33.0578 45.9698 32.5736 45.481L29.9032 42.7854C29.419 42.2965 29.419 41.5031 29.9032 41.0143L32.5736 38.3187ZM49.6368 41.0143L45.1958 36.5325C44.7128 36.0436 43.927 36.0436 43.4427 36.5325L43.4264 36.5491C42.9422 37.038 42.9422 37.8298 43.4264 38.3187L46.098 41.0143C46.5823 41.5031 46.5823 42.2965 46.098 42.7854L43.4264 45.481C42.9422 45.9698 42.9422 46.7617 43.4264 47.2505L43.4427 47.2669C43.927 47.7557 44.7128 47.7557 45.1958 47.2669L49.6368 42.7854C50.1211 42.2965 50.1211 41.5031 49.6368 41.0143ZM42.1802 35.7788L35.7857 49.4595C35.5785 49.8896 35.2151 50.4211 34.7462 50.4211H34.7213C33.8096 50.4211 33.2154 49.1829 33.6186 48.3481L39.9759 34.7969C40.1831 34.368 40.9509 34.0318 40.9509 34.0318V34C42.1914 34 42.5822 34.944 42.1802 35.7788Z" fill="white"/>
</svg>
