<svg width="644" height="644" viewBox="0 0 644 644" fill="none" xmlns="http://www.w3.org/2000/svg">
<g opacity="0.3" clip-path="url(#clip0_300_253)">
<path fill-rule="evenodd" clip-rule="evenodd" d="M368.69 147.194C377.092 138.769 387.082 132.094 398.081 127.555C409.08 123.016 420.869 120.703 432.768 120.75C449.147 120.763 465.215 125.222 479.259 133.651C493.302 142.08 504.794 154.163 512.509 168.611C520.224 183.059 523.873 199.331 523.066 215.69C522.259 232.049 517.027 247.882 507.928 261.5C498.828 275.119 486.203 286.012 471.398 293.018C456.593 300.024 440.164 302.881 423.863 301.282C407.562 299.683 392.001 293.69 378.84 283.941C365.678 274.193 355.409 261.054 349.128 245.927L349.088 245.847C342.211 229.306 340.411 211.093 343.916 193.525C347.421 175.958 356.072 159.83 368.77 147.194H368.69ZM411.355 189.899C415.542 185.653 420.912 182.767 426.763 181.619C432.615 180.47 438.677 181.111 444.159 183.459C450.611 186.107 455.943 190.912 459.246 197.055C462.549 203.197 463.616 210.296 462.267 217.138C460.917 223.98 457.235 230.142 451.847 234.57C446.46 238.999 439.702 241.42 432.728 241.419C426.754 241.453 420.905 239.708 415.925 236.407C410.945 233.106 407.06 228.399 404.764 222.883C402.469 217.368 401.865 211.294 403.032 205.435C404.198 199.575 407.082 194.196 411.315 189.98L411.355 189.899Z" fill="#1D213F"/>
<path fill-rule="evenodd" clip-rule="evenodd" d="M416.748 0.000656175C376.683 0.117026 337.351 10.7607 302.694 30.8654C268.037 50.97 239.273 79.8294 219.282 114.552C203.604 142.137 193.84 172.684 190.611 204.248C187.382 235.812 190.758 267.703 200.525 297.891L8.855 489.521C3.19213 495.177 0.00704584 502.85 0 510.854L0 613.813C0 630.477 13.524 644.001 30.1875 644.001H132.704C140.708 643.994 148.381 640.809 154.037 635.146L180.4 608.782C184.512 604.642 187.742 599.711 189.893 594.287C192.045 588.863 193.074 583.059 192.918 577.226V551.466H214.975C227.453 551.466 239.85 546.515 248.906 537.177L249.228 536.855C257.439 528.161 262.269 516.811 262.51 504.615V482.236H289.719C301.311 482.236 312.501 477.527 320.591 469.074L346.271 443.435C376.429 453.2 408.292 456.569 439.826 453.325C471.359 450.082 501.869 440.298 529.408 424.598C559.695 407.191 585.592 383.078 605.114 354.11C624.635 325.141 637.263 292.086 642.028 257.48C646.572 222.854 643.122 187.607 631.945 154.521C620.768 121.436 602.159 91.3504 577.547 66.5742C556.469 45.4084 531.407 28.6278 503.808 17.2013C476.209 5.77477 446.619 -0.0712957 416.748 0.000656175ZM394.691 61.8247C420.128 58.3391 446.027 60.8075 470.348 69.0354C494.668 77.2633 516.746 91.0259 534.842 109.239C552.894 127.454 566.544 149.554 574.748 173.852C582.952 198.149 585.492 224 582.176 249.43C578.658 274.838 569.38 299.107 555.052 320.383C540.724 341.659 521.724 359.379 499.502 372.192C477.2 384.892 452.278 392.299 426.659 393.841C401.04 395.383 375.41 391.02 351.745 381.088C349.888 380.321 347.96 379.741 345.989 379.357L345.063 379.156C339.917 378.197 334.616 378.499 329.611 380.034C324.607 381.569 320.048 384.292 316.325 387.97L282.434 421.861H240.413C230.268 421.872 220.543 425.909 213.373 433.086C206.203 440.264 202.176 449.994 202.176 460.139V491.051H170.821C165.794 491.056 160.818 492.051 156.176 493.98C151.534 495.908 147.317 498.732 143.766 502.29C140.216 505.849 137.401 510.071 135.482 514.717C133.563 519.363 132.578 524.342 132.583 529.369V571.229L120.186 583.626H60.375V523.371L255.789 328.038C264.644 319.183 268.306 305.216 262.792 292.296C252.911 268.626 248.576 243.01 250.118 217.406C251.659 191.803 259.038 166.892 271.687 144.579C284.505 122.337 302.243 103.323 323.543 88.993C344.842 74.6631 369.138 65.3974 394.571 61.9052H394.691V61.8247Z" fill="#1D213F"/>
</g>
<defs>
<clipPath id="clip0_300_253">
<rect width="644" height="644" fill="white"/>
</clipPath>
</defs>
</svg>
