<svg width="64" height="64" viewBox="0 0 64 64" fill="none" xmlns="http://www.w3.org/2000/svg">
<path d="M44.7809 15.3508C44.8809 17.4508 44.4709 19.5308 46.0009 21.4908C47.0809 22.8708 46.2609 24.8308 44.8609 26.0408C44.1661 26.6231 43.6267 27.3687 43.2909 28.2108C42.142 31.6658 39.9561 34.6828 37.0309 36.8508C35.5607 37.9925 33.7523 38.6123 31.8909 38.6123C30.0295 38.6123 28.221 37.9925 26.7509 36.8508C23.8168 34.6784 21.6126 31.6651 20.4309 28.2108C20.1001 27.3686 19.5638 26.6226 18.8709 26.0408C18.0974 25.4331 17.5815 24.5563 17.4258 23.5851C17.2701 22.614 17.4861 21.6198 18.0309 20.8008C18.5255 19.9539 18.826 19.0079 18.9109 18.0308C19.0409 16.3308 18.9109 14.6108 18.9109 12.8908C18.8801 11.5996 19.1086 10.3154 19.5828 9.11408C20.0569 7.91274 20.7672 6.81869 21.6716 5.89663C22.5759 4.97456 23.656 4.24321 24.8479 3.74581C26.0398 3.24842 27.3193 2.99509 28.6109 3.00081C30.7709 3.00081 32.9309 3.00081 35.0909 3.00081C36.3816 2.98406 37.6624 3.22861 38.8561 3.71974C40.0499 4.21087 41.1319 4.93842 42.0372 5.85862C42.9424 6.77882 43.6522 7.87265 44.1237 9.07429C44.5952 10.2759 44.8187 11.5605 44.7809 12.8508C44.7909 13.7008 44.7809 14.5208 44.7809 15.3508ZM26.6109 12.5608C26.0209 14.1608 25.5109 15.7908 24.8409 17.3508C24.0009 19.2908 23.0609 21.1508 20.5509 21.4708C20.2567 21.6063 20.0017 21.8139 19.8093 22.0744C19.617 22.3349 19.4937 22.6398 19.4509 22.9608C19.4913 23.2836 19.6099 23.5917 19.7964 23.8583C19.9828 24.1249 20.2315 24.342 20.5209 24.4908C21.7609 24.8308 21.9709 25.6308 22.2109 26.7008C22.9951 30.277 25.1489 33.4037 28.2109 35.4108C29.2925 36.2174 30.6104 36.6439 31.9596 36.624C33.3087 36.6041 34.6135 36.1389 35.6709 35.3008C38.6917 33.2311 40.8035 30.0814 41.5709 26.5008C41.8109 25.5008 42.0909 24.8308 43.1909 24.5008C43.4798 24.3492 43.7291 24.1317 43.9184 23.8659C44.1078 23.6001 44.2319 23.2935 44.2809 22.9708C44.2619 22.6739 44.1662 22.387 44.0032 22.1381C43.8402 21.8892 43.6155 21.6869 43.3509 21.5508C40.0809 21.0708 39.3509 18.4208 38.3509 15.9608C37.8909 14.8208 37.5209 13.6408 37.1009 12.4708C32.8409 14.3408 32.4109 14.3408 26.6109 12.5608ZM21.1809 19.3708C21.5967 18.9196 21.9653 18.427 22.2809 17.9008C23.0709 15.9708 23.8309 14.0308 24.5409 12.0708C25.2509 10.1108 26.2409 9.6708 27.9809 10.7208C29.1259 11.4777 30.4683 11.8813 31.8409 11.8813C33.2135 11.8813 34.5558 11.4777 35.7009 10.7208C37.4809 9.6508 38.4909 10.0508 39.1809 11.9808C39.7909 13.7108 40.3609 15.4608 41.0609 17.1508C41.4985 17.933 42.0217 18.6642 42.6209 19.3308C42.7707 16.6354 42.7473 13.9332 42.5509 11.2408C42.3128 9.52101 41.4631 7.94459 40.1572 6.80039C38.8514 5.6562 37.177 5.02086 35.4409 5.01081C33.0409 4.92081 30.6209 4.92081 28.2209 5.01081C24.8609 5.15081 21.7409 7.51081 21.2209 10.7508C20.8709 13.4108 21.1809 16.1408 21.1809 19.3708Z" fill="#EE2D2A"/>
<path d="M16.8207 59.3608C16.758 58.3018 16.758 57.2399 16.8207 56.1808C16.8707 55.7908 17.3507 55.4508 17.6407 55.0908C17.9907 55.4608 18.5807 55.7908 18.6407 56.2108C18.7386 57.2078 18.7554 58.2111 18.6907 59.2108H44.9707C44.9054 58.2743 44.9255 57.3338 45.0307 56.4008C45.1207 55.9108 45.6907 55.5208 46.0307 55.0908C46.3507 55.5008 46.8607 55.8808 46.9407 56.3308C47.044 57.2871 47.0741 58.25 47.0307 59.2108H54.4607C54.8703 57.6049 54.949 55.9324 54.6919 54.2951C54.4348 52.6578 53.8473 51.0899 52.9652 49.6868C52.0831 48.2837 50.9248 47.0747 49.5608 46.1333C48.1967 45.1919 46.6555 44.5378 45.0307 44.2108L44.1607 43.8908C42.9107 43.4408 42.5307 43.0508 42.3507 42.3408C42.7007 41.7408 43.9907 42.0208 44.3507 42.1408C46.6607 42.9508 49.1407 43.5808 51.1307 44.9108C55.6007 47.9108 58.0607 55.1208 56.6507 60.2208C56.5025 60.4998 56.295 60.7428 56.0428 60.9329C55.7905 61.123 55.4997 61.2554 55.1907 61.3208C54.3114 61.4278 53.4234 61.4445 52.5407 61.3708H9.67068C7.03068 61.3708 6.89068 61.3708 7.04068 58.7208C7.19068 56.0708 7.20068 53.4408 8.04068 51.0508C9.76068 46.0508 13.5807 43.1308 18.8107 42.2208C19.4407 42.1108 20.8707 42.3508 20.8707 42.6708C20.8707 42.9908 19.8007 43.9708 19.1207 44.2108C15.9548 44.7631 13.1292 46.5286 11.2449 49.1319C9.36058 51.7352 8.56619 54.9709 9.03068 58.1508C9.09585 58.4149 9.22607 58.6585 9.40946 58.8593C9.59286 59.0602 9.82361 59.212 10.0807 59.3008C12.2207 59.4108 14.3607 59.3608 16.8207 59.3608Z" fill="#EE2D2A"/>
<path d="M23.3008 44.1208C23.3008 42.8508 23.3008 41.5808 23.3008 40.3108C23.3008 38.8108 24.0308 38.5108 25.3008 39.1908C27.0708 40.1908 28.7808 41.3108 30.6108 42.1908C31.4332 42.5161 32.3485 42.5161 33.1708 42.1908C34.9508 41.3808 36.5908 40.2508 38.3208 39.3208C39.8508 38.5008 40.4608 38.8208 40.5008 40.5108C40.5508 42.9308 40.5008 45.3408 40.5008 47.7608C40.5008 49.4608 39.8908 49.7608 38.3308 48.9408C36.5408 47.9908 34.8308 46.8708 33.0008 45.9908C32.2926 45.7013 31.499 45.7013 30.7908 45.9908C28.9108 46.9008 27.1308 47.9908 25.3008 49.0508C24.0608 49.7408 23.3608 49.4008 23.3008 47.9308C23.2908 46.6608 23.3008 45.3908 23.3008 44.1208ZM29.8308 44.1208L25.4508 41.6908V46.5908L29.8308 44.1208ZM38.2608 46.5908V41.6508L33.9308 44.1308L38.2608 46.5908Z" fill="white"/>
<path d="M21.1808 19.3708C21.1808 16.1408 20.8708 13.3708 21.2608 10.7808C21.7408 7.54083 24.8608 5.18083 28.2608 5.04083C30.6608 4.95083 33.0808 4.95083 35.4808 5.04083C37.2169 5.05088 38.8913 5.68622 40.1971 6.83042C41.503 7.97461 42.3527 9.55104 42.5908 11.2708C42.7873 13.9632 42.8106 16.6654 42.6608 19.3608C42.039 18.7072 41.4923 17.986 41.0308 17.2108C40.3308 15.5208 39.7608 13.7708 39.1508 12.0408C38.4608 10.1108 37.4508 9.71083 35.6708 10.7808C34.5257 11.5377 33.1834 11.9413 31.8108 11.9413C30.4382 11.9413 29.0958 11.5377 27.9508 10.7808C26.2108 9.78083 25.2208 10.1908 24.5108 12.1308C23.8008 14.0708 23.0408 16.0308 22.2508 17.9608C21.9413 18.4648 21.5829 18.9371 21.1808 19.3708Z" fill="#EE2D2A"/>
<path d="M29.8307 44.1108L25.4507 46.5808V41.6808L29.8307 44.1108Z" fill="white"/>
<path d="M38.2607 46.5808L33.9307 44.1308L38.2607 41.6508V46.5808Z" fill="white"/>
<path d="M32.0305 52.6508C32.8534 52.6508 33.5205 51.9837 33.5205 51.1608C33.5205 50.3379 32.8534 49.6708 32.0305 49.6708C31.2076 49.6708 30.5405 50.3379 30.5405 51.1608C30.5405 51.9837 31.2076 52.6508 32.0305 52.6508Z" fill="#EE2D2A"/>
<path d="M32.0305 57.5008C32.8534 57.5008 33.5205 56.8337 33.5205 56.0108C33.5205 55.1879 32.8534 54.5208 32.0305 54.5208C31.2076 54.5208 30.5405 55.1879 30.5405 56.0108C30.5405 56.8337 31.2076 57.5008 32.0305 57.5008Z" fill="#EE2D2A"/>
</svg>
