<svg width="60" height="60" viewBox="0 0 60 60" fill="none" xmlns="http://www.w3.org/2000/svg">
<path d="M59.6844 0.814153C59.6599 0.695595 59.6022 0.586471 59.518 0.499573C59.4338 0.412676 59.3266 0.351606 59.2089 0.323523C51.3646 -1.5961 33.2398 5.24457 23.42 15.0692C21.6685 16.8081 20.0718 18.6964 18.648 20.7128C15.6199 20.4447 12.5917 20.6686 10.0109 21.7946C2.72905 25.0025 0.608926 33.3727 0.0182924 36.9733C-0.0152094 37.1704 -0.00257253 37.3725 0.0552088 37.5639C0.11299 37.7553 0.21434 37.9306 0.351288 38.0761C0.488236 38.2216 0.657047 38.3334 0.844443 38.4025C1.03184 38.4717 1.23271 38.4964 1.43126 38.4747L13.1247 37.1838C13.1331 38.0662 13.1863 38.9476 13.2841 39.8246C13.343 40.4336 13.6131 41.0028 14.0475 41.4332L18.5757 45.9548C19.0062 46.3891 19.5746 46.6593 20.1829 46.7189C21.0542 46.8164 21.9299 46.8697 22.8066 46.8784L21.5235 58.5677C21.5021 58.7664 21.527 58.9673 21.5962 59.1547C21.6654 59.3422 21.777 59.511 21.9223 59.648C22.0676 59.785 22.2427 59.8865 22.4338 59.9444C22.6248 60.0024 22.8267 60.0152 23.0235 59.982C26.6142 59.4055 34.9916 57.2835 38.1778 49.9951C39.3028 47.4119 39.5332 44.3958 39.2733 41.3796C41.2928 39.9544 43.1843 38.3558 44.9266 36.602C54.7771 26.7921 61.5728 9.05566 59.6844 0.814153ZM35.0987 24.8992C34.1992 23.9995 33.5866 22.853 33.3382 21.6047C33.0898 20.3565 33.2168 19.0625 33.7033 17.8865C34.1897 16.7105 35.0137 15.7053 36.071 14.9981C37.1283 14.2909 38.3713 13.9134 39.643 13.9134C40.9146 13.9134 42.1577 14.2909 43.215 14.9981C44.2723 15.7053 45.0963 16.7105 45.5827 17.8865C46.0692 19.0625 46.1962 20.3565 45.9478 21.6047C45.6994 22.853 45.0867 23.9995 44.1873 24.8992C43.5908 25.4971 42.8824 25.9714 42.1027 26.295C41.3229 26.6186 40.4871 26.7852 39.643 26.7852C38.7989 26.7852 37.963 26.6186 37.1833 26.295C36.4035 25.9714 35.6952 25.4971 35.0987 24.8992Z" fill="#EE2D2A"/>
<path d="M18.2676 49.2297C17.5336 49.9657 16.3564 50.2525 14.9394 50.4979C11.7559 51.0408 8.94467 48.2873 9.51655 45.0661C9.73486 43.8449 10.3804 42.133 10.7822 41.7309C10.87 41.6447 10.9285 41.5329 10.9493 41.4116C10.97 41.2903 10.9521 41.1654 10.898 41.0549C10.8439 40.9443 10.7563 40.8536 10.6478 40.7957C10.5392 40.7378 10.4152 40.7155 10.2933 40.7322C8.51309 40.9502 6.85687 41.7581 5.58837 43.0271C2.43966 46.1814 2.14233 57.8855 2.14233 57.8855C2.14233 57.8855 13.8425 57.5879 16.9912 54.4336C18.2631 53.165 19.0712 51.5047 19.2854 49.7204C19.335 49.16 18.6533 48.8262 18.2676 49.2297Z" fill="#EE2D2A"/>
</svg>
