<svg width="154" height="44" viewBox="0 0 154 44" fill="none" xmlns="http://www.w3.org/2000/svg">
<g clip-path="url(#clip0_553_231)">
<path fill-rule="evenodd" clip-rule="evenodd" d="M57.6016 22.9445C54.5432 15.2162 51.5451 7.64709 48.5185 0H66.8402C63.7724 7.62107 60.7235 15.1966 57.6016 22.9445Z" fill="white"/>
<path fill-rule="evenodd" clip-rule="evenodd" d="M93.7879 22.8759C90.7072 15.18 87.6838 7.6338 84.6317 0.00947342H102.896C99.8729 7.60454 96.8654 15.1541 93.7879 22.8759Z" fill="white"/>
<path fill-rule="evenodd" clip-rule="evenodd" d="M83.5171 43.9999H67.9138C70.5022 37.1234 73.0683 30.312 75.6312 23.5037C75.682 23.4939 75.733 23.4874 75.7805 23.4777C78.3499 30.2924 80.9191 37.1105 83.5171 43.9999Z" fill="white"/>
<path fill-rule="evenodd" clip-rule="evenodd" d="M48.2993 28.4206C48.2993 26.5284 47.1814 24.9027 45.5839 24.1972C45.6251 24.1712 45.6665 24.1452 45.7045 24.1191C47.2353 23.3876 48.2993 21.801 48.2993 19.9575V7.17657C48.2993 3.22622 45.171 0.0236835 41.3123 0.0236835H0V43.988H15.3111L15.3015 30.3681C15.2984 29.7894 15.4698 29.6529 16.0098 29.6562C19.9733 29.6789 23.9368 29.6594 27.9004 29.6756C28.669 29.6756 29.4407 29.7375 30.2061 29.8317C32.1211 30.0657 33.0549 31.1679 33.0517 33.1253C33.0454 36.4514 33.0517 39.7807 33.0391 43.1069C33.0391 43.1978 33.0391 43.2792 33.0485 43.3572V43.6595C33.0485 43.8384 33.1915 43.9847 33.3661 43.9847H47.9817C48.1564 43.9847 48.2993 43.8384 48.2993 43.6595M33.2359 16.6184C33.2359 17.7433 32.3435 18.6569 31.2447 18.6569H15.7874C15.4381 18.6569 15.1523 18.3676 15.1523 18.0067V11.7609C15.1523 11.4033 15.4381 11.1107 15.7874 11.1107H31.2447C32.3435 11.1107 33.2359 12.021 33.2359 13.1492V16.6217V16.6184Z" fill="#EE2D2A"/>
<path fill-rule="evenodd" clip-rule="evenodd" d="M147.27 0.0301862V0.0236835H120.767C120.659 0.0236835 120.485 0.0789558 120.38 0.348815V0.36182C120.37 0.387831 120.357 0.404087 120.345 0.433349C119.659 2.28985 118.954 4.13985 118.258 5.99309C115.273 13.9523 112.291 21.9116 109.302 29.8707C107.892 33.6326 106.472 37.3877 105.059 41.1495C104.722 42.0501 104.392 42.9508 104.03 43.9326V43.988H140.842C143.055 43.9782 145.279 43.8904 147.441 43.2921C149.601 42.6939 151.593 41.6892 152.758 39.5954C153.511 38.2461 153.882 36.7667 153.92 35.2387C153.92 35.1216 153.924 35.0045 153.927 34.8842C153.968 34.6306 153.996 34.3705 153.996 34.104V26.1739C153.996 24.1517 152.717 22.4349 150.944 21.8205C152.786 20.5329 153.996 18.3676 153.996 15.9129V7.17982C153.996 3.31727 151.005 0.173244 147.266 0.0334374L147.27 0.0301862ZM138.857 31.0185C138.857 31.9158 138.145 32.6441 137.269 32.6441H120.831V27.6273H121.682C121.682 27.6273 121.682 27.6273 121.685 27.6273C126.417 27.6273 131.146 27.6273 135.878 27.6273C135.944 27.6273 136.011 27.6273 136.075 27.6273H137.266C138.143 27.6273 138.853 28.3556 138.853 29.253V31.0185H138.857ZM138.857 13.5199C138.87 13.6889 138.87 13.8548 138.857 14.0205V14.7132C138.857 15.6105 138.145 16.3387 137.269 16.3387H120.831V11.322H121.564C121.605 11.322 121.647 11.3187 121.688 11.3187C122.911 11.3187 124.134 11.3187 125.354 11.322H137.269C138.145 11.322 138.857 12.0503 138.857 12.9477V13.5199Z" fill="white"/>
</g>
<defs>
<clipPath id="clip0_553_231">
<rect width="154" height="44" fill="white"/>
</clipPath>
</defs>
</svg>
