<svg width="64" height="64" viewBox="0 0 64 64" fill="none" xmlns="http://www.w3.org/2000/svg">
<path d="M9.02002 54.7H46.44V58.49C46.44 58.6226 46.3873 58.7498 46.2936 58.8436C46.1998 58.9373 46.0726 58.99 45.94 58.99H9.52002C9.38741 58.99 9.26023 58.9373 9.16647 58.8436C9.0727 58.7498 9.02002 58.6226 9.02002 58.49V54.7Z" fill="#EE2D2A"/>
<path d="M46.4996 50.26H9.07959V52.94H46.4996V50.26Z" fill="#EE2D2A"/>
<path d="M48.0698 37.87H49.8098C49.9849 37.87 50.1527 37.9395 50.2765 38.0633C50.4003 38.1871 50.4698 38.355 50.4698 38.53V44.36C50.4698 44.5351 50.4003 44.7029 50.2765 44.8267C50.1527 44.9505 49.9849 45.02 49.8098 45.02H48.0698V37.82V37.87Z" fill="#EE2D2A"/>
<path d="M27.73 5C17.53 5 9.23 13.63 9 24.36V48.49H46.39V26.49C46.39 25.93 46.48 25.38 46.48 24.81C46.48 13.87 38.07 5 27.73 5ZM44.38 46.67H10.69V26.01H44.38V46.67ZM31.82 24.36C31.5404 23.4828 30.9891 22.7173 30.2458 22.1741C29.5025 21.6309 28.6057 21.3381 27.685 21.3381C26.7643 21.3381 25.8675 21.6309 25.1242 22.1741C24.3809 22.7173 23.8296 23.4828 23.55 24.36H10.69C10.92 14.65 18.44 6.85 27.69 6.85C36.94 6.85 44.5 14.65 44.69 24.36H31.82Z" fill="#EE2D2A"/>
<path d="M53.9 39.58V24.15C54.12 23.9928 54.2999 23.7859 54.425 23.5461C54.5501 23.3063 54.6169 23.0404 54.62 22.77C54.6383 22.5271 54.6062 22.2829 54.5258 22.0529C54.4454 21.823 54.3184 21.612 54.1527 21.4334C53.987 21.2548 53.7862 21.1123 53.5629 21.0148C53.3396 20.9174 53.0986 20.8671 52.855 20.8671C52.6113 20.8671 52.3703 20.9174 52.147 21.0148C51.9237 21.1123 51.7229 21.2548 51.5572 21.4334C51.3915 21.612 51.2645 21.823 51.1841 22.0529C51.1037 22.2829 51.0717 22.5271 51.09 22.77C51.093 23.0404 51.1598 23.3063 51.2849 23.5461C51.41 23.7859 51.5899 23.9928 51.81 24.15V43H53.9C54.3508 43 54.7832 42.8209 55.102 42.5021C55.4209 42.1833 55.6 41.7509 55.6 41.3C55.6 40.8491 55.4209 40.4167 55.102 40.0979C54.7832 39.7791 54.3508 39.6 53.9 39.6V39.58Z" fill="#EE2D2A"/>
<path d="M20.9598 28.96H13.2998C13.0346 28.96 12.7802 29.0653 12.5927 29.2529C12.4052 29.4404 12.2998 29.6947 12.2998 29.96V41.96C12.2998 42.2252 12.4052 42.4795 12.5927 42.6671C12.7802 42.8546 13.0346 42.96 13.2998 42.96H20.9298C21.195 42.96 21.4494 42.8546 21.6369 42.6671C21.8244 42.4795 21.9298 42.2252 21.9298 41.96V29.96C21.9299 29.6999 21.8287 29.4499 21.6476 29.2633C21.4665 29.0766 21.2198 28.9678 20.9598 28.96ZM17.4698 39.58H16.1798L18.1798 33.51H15.6898V35.06H14.4598V32.36H19.8298L17.4698 39.58Z" fill="white"/>
<path d="M31.61 28.96H23.98C23.7148 28.96 23.4604 29.0653 23.2729 29.2529C23.0853 29.4404 22.98 29.6947 22.98 29.96V41.96C22.98 42.2252 23.0853 42.4795 23.2729 42.6671C23.4604 42.8546 23.7148 42.96 23.98 42.96H31.61C31.7413 42.96 31.8713 42.9341 31.9927 42.8838C32.114 42.8336 32.2242 42.7599 32.3171 42.6671C32.4099 42.5742 32.4836 42.464 32.5339 42.3426C32.5841 42.2213 32.61 42.0913 32.61 41.96V29.96C32.61 29.8286 32.5841 29.6986 32.5339 29.5773C32.4836 29.456 32.4099 29.3457 32.3171 29.2529C32.2242 29.16 32.114 29.0863 31.9927 29.0361C31.8713 28.9858 31.7413 28.96 31.61 28.96ZM28.11 39.58H26.83L28.83 33.51H26.3V35.06H25.11V32.36H30.48L28.11 39.58Z" fill="white"/>
<path d="M42.1197 28.96H34.4897C34.2245 28.96 33.9702 29.0653 33.7826 29.2529C33.5951 29.4404 33.4897 29.6947 33.4897 29.96V41.96C33.4897 42.2252 33.5951 42.4795 33.7826 42.6671C33.9702 42.8546 34.2245 42.96 34.4897 42.96H42.1197C42.385 42.96 42.6393 42.8546 42.8269 42.6671C43.0144 42.4795 43.1197 42.2252 43.1197 41.96V29.96C43.1197 29.6947 43.0144 29.4404 42.8269 29.2529C42.6393 29.0653 42.385 28.96 42.1197 28.96ZM38.6297 39.58H37.2997L39.2997 33.51H36.8497V35.06H35.6197V32.36H40.9897L38.6297 39.58Z" fill="white"/>
</svg>
