<svg width="64" height="64" viewBox="0 0 64 64" fill="none" xmlns="http://www.w3.org/2000/svg">
<path fill-rule="evenodd" clip-rule="evenodd" d="M21.1139 32.23L21.3539 31.92L17.7139 23.45C18.3968 20.8453 19.5453 18.3857 21.1039 16.19L30.9739 17.48L39.8539 11L37.1039 7.7C37.6039 7.65 38.1039 7.65 38.6439 7.65C43.8517 7.49096 48.9273 9.30545 52.8539 12.73L46.0239 13L46.7839 24L55.8839 28.17L59.1239 23.7C60.2485 28.5112 59.9001 33.5494 58.1239 38.16L55.7839 34.68L46.4539 41.46L45.8939 49.84C43.7162 50.5062 41.4512 50.8433 39.1739 50.84C37.525 50.8405 35.879 50.7 34.2539 50.42L30.5539 46.24L28.1839 46.63C28.3121 47.889 28.3522 49.1554 28.3039 50.42C31.7819 51.8905 35.5283 52.6194 39.3039 52.56C68.9639 52.53 69.1439 6 38.6839 6C23.4339 6 15.4239 17.57 15.2739 29.17L21.1139 32.23Z" fill="#EE2D2A"/>
<path fill-rule="evenodd" clip-rule="evenodd" d="M24.9238 32.07L31.7738 22.69L43.0638 26.38V38.29L32.1538 41.71L24.9238 32.07Z" fill="#ED2D2A"/>
<path d="M18.1937 46.63L18.7237 47.28C18.8568 47.454 18.9158 47.6736 18.8877 47.8909C18.8596 48.1082 18.7467 48.3056 18.5737 48.44C18.491 48.507 18.3958 48.5571 18.2938 48.5874C18.1917 48.6176 18.0847 48.6274 17.9788 48.6163C17.8729 48.6052 17.7703 48.5732 17.6767 48.5224C17.5832 48.4716 17.5006 48.4028 17.4337 48.32L16.9037 47.68L15.6237 48.68C15.4552 48.8219 15.2374 48.891 15.0179 48.8723C14.7985 48.8535 14.5955 48.7484 14.4537 48.58C14.3118 48.4116 14.2426 48.1937 14.2613 47.9743C14.2801 47.7548 14.3852 47.5519 14.5537 47.41L15.8437 46.41L14.7837 45.1L13.5037 46.1C13.3352 46.2419 13.1174 46.311 12.8979 46.2923C12.6785 46.2735 12.4755 46.1684 12.3337 46C12.1918 45.8316 12.1226 45.6137 12.1413 45.3943C12.1601 45.1748 12.2652 44.9719 12.4337 44.83L13.7237 43.83L12.6737 42.55L11.3937 43.55C11.2252 43.6919 11.0074 43.761 10.7879 43.7423C10.5685 43.7235 10.3655 43.6184 10.2237 43.45C10.0818 43.2816 10.0126 43.0637 10.0313 42.8443C10.0501 42.6248 10.1552 42.4219 10.3237 42.28L11.6137 41.28L11.0937 40.63C11.0234 40.5466 10.9702 40.4502 10.9372 40.3463C10.9041 40.2423 10.8919 40.1329 10.9012 40.0242C10.9105 39.9156 10.9411 39.8098 10.9913 39.713C11.0415 39.6162 11.1102 39.5302 11.1937 39.46C11.3631 39.3205 11.5804 39.2529 11.799 39.2716C12.0177 39.2903 12.2203 39.3938 12.3637 39.56L12.8937 40.2L14.1737 39.2C14.3421 39.0581 14.5599 38.9889 14.7794 39.0077C14.9988 39.0264 15.2018 39.1316 15.3437 39.3C15.4855 39.4684 15.5547 39.6863 15.536 39.9057C15.5172 40.1251 15.4121 40.3281 15.2437 40.47L13.9537 41.47L14.9537 42.76L16.2437 41.71C16.4147 41.5548 16.6404 41.474 16.8711 41.4852C17.1018 41.4965 17.3185 41.5989 17.4737 41.77C17.6288 41.941 17.7096 42.1667 17.6984 42.3974C17.6871 42.6281 17.5847 42.8448 17.4137 43L16.1237 44.05L17.1737 45.34L18.4637 44.29C18.636 44.2011 18.834 44.1753 19.0233 44.2172C19.2126 44.2591 19.3813 44.3659 19.5001 44.5191C19.6189 44.6724 19.6803 44.8624 19.6736 45.0561C19.667 45.2499 19.5927 45.4352 19.4637 45.58L18.1937 46.63Z" fill="white"/>
<path d="M4.64352 31.28C0.383517 34.74 2.72352 46.46 6.45352 51C10.1835 55.54 21.5635 59.61 25.2635 56.6C28.3135 54.12 27.2635 41.5 23.6235 37.03C19.9835 32.56 8.68352 28 4.64352 31.28ZM24.7835 56.07C21.5535 58.71 10.6135 55 7.01352 50.58C3.41352 46.16 1.34352 34.91 5.10352 31.85C8.58352 29.02 19.4535 33.1 23.1035 37.53C26.7535 41.96 27.3535 54 24.7835 56.07Z" fill="#EE2D2A"/>
<path d="M23.8737 36.87C22.0637 34.64 18.3437 32.33 14.4037 30.97C9.98366 29.45 6.40366 29.47 4.40366 31.03C2.40366 32.59 1.59366 36.22 2.19366 40.78C2.72366 44.78 4.28366 48.94 6.19366 51.24C8.10366 53.54 11.7837 55.74 15.7837 57C17.5934 57.6111 19.4843 57.9481 21.3937 58C22.8372 58.0906 24.2697 57.6964 25.4637 56.88C28.6937 54.27 27.6737 41.54 23.8737 36.87ZM24.6037 55.87C21.6037 58.29 10.9337 54.93 7.26366 50.42C3.88366 46.22 1.66366 35.07 5.31366 32.1C6.24059 31.4667 7.35365 31.1638 8.47366 31.24C13.0337 31.24 20.0737 34.38 22.8037 37.74C26.2637 42 27.0037 53.86 24.6037 55.82V55.87Z" fill="#EE2D2A"/>
<path d="M13.8438 33.21C10.5138 31.92 7.21382 31.48 5.68382 32.73C4.15382 33.98 3.78382 37.4 4.39382 40.9L13.8438 33.21Z" fill="white"/>
<path d="M15.9238 54.71C19.3338 56.01 22.6838 56.47 24.1438 55.29C25.2738 54.37 25.5238 50.98 25.0238 47.29L15.9238 54.71Z" fill="white"/>
</svg>
