<svg width="140" height="140" viewBox="0 0 140 140" fill="none" xmlns="http://www.w3.org/2000/svg">
<circle cx="70" cy="70" r="69.5" fill="#EE2D2A" fill-opacity="0.15" stroke="#EE2D2A"/>
<circle cx="70" cy="70" r="50.4651" fill="#EE2D2A" fill-opacity="0.15"/>
<circle cx="70.0001" cy="70" r="28.4884" fill="#EE2D2A" fill-opacity="0.15"/>
<path d="M79.2515 72.2013C75.8514 72.5248 72.0763 75.8146 72.8005 81.2107C72.7049 81.0085 72.6534 80.913 72.613 80.8137C71.4746 78.0724 69.5577 75.7248 67.0993 74.0612C66.9842 73.9933 66.8909 73.8939 66.8303 73.7747C66.7697 73.6556 66.7445 73.5216 66.7574 73.3886C66.7574 69.2006 66.7574 65.0151 66.7574 60.832V60.3284H63.9087C63.6183 60.3284 63.3279 60.3284 63.0375 60.3284C62.7471 60.3284 62.4751 60.3284 62.42 60.0233C62.3992 59.7986 62.4664 59.5746 62.6074 59.3985C63.7102 58.009 64.8681 56.6416 66.0039 55.2668L69.2827 51.297C69.6797 50.8154 69.9333 50.8118 70.323 51.297C72.5431 53.9926 74.7633 56.6796 76.9835 59.358C77.1489 59.5602 77.3511 59.755 77.2041 60.0601C77.057 60.3652 76.785 60.3395 76.5204 60.3395C75.3037 60.3395 74.0907 60.3395 72.8446 60.3395V68.18C73.8591 67.7242 74.8589 67.1801 75.9249 66.8199C76.9909 66.4597 78.0936 66.2943 79.2331 66.0259C79.2331 65.9928 79.2331 65.8532 79.2331 65.7135C79.2331 64.5887 79.2331 63.4676 79.2331 62.3464C79.2331 62.1369 79.3471 61.8135 79.4904 61.7546C79.6055 61.7306 79.7245 61.7323 79.8389 61.7596C79.9533 61.7869 80.0603 61.8392 80.1521 61.9127C82.8624 64.1182 85.558 66.3421 88.2388 68.5843C88.7461 69.0033 88.7424 69.2239 88.2388 69.6466C85.5432 71.879 82.8477 74.1041 80.1521 76.3219C80.0654 76.3929 79.9641 76.4438 79.8555 76.4712C79.7468 76.4985 79.6334 76.5015 79.5235 76.4799C79.438 76.4088 79.3688 76.3201 79.3206 76.2199C79.2724 76.1197 79.2463 76.0103 79.2441 75.8992C79.2184 74.8185 79.2441 73.7341 79.2441 72.6534L79.2515 72.2013Z" fill="white"/>
<path d="M60.3285 78.5752V81.7437C60.3526 81.9132 60.3526 82.0852 60.3285 82.2547C60.277 82.4311 60.1888 82.659 60.0491 82.7252C59.9563 82.7529 59.8584 82.759 59.7628 82.743C59.6672 82.7271 59.5766 82.6896 59.4978 82.6333C58.9795 82.2436 58.4906 81.8172 57.9944 81.4055L51.3044 75.8918C50.7934 75.4691 50.7898 75.2449 51.3044 74.8332L59.336 68.2168C59.4707 68.0924 59.6296 67.9973 59.8028 67.9374C60.1116 67.8639 60.3322 68.1285 60.3322 68.5549C60.3322 69.7202 60.3322 70.8817 60.3322 72.0433C60.3322 72.3704 60.4094 72.4807 60.7549 72.5322C63.7688 73.0047 66.5516 74.4321 68.6935 76.6045C70.8355 78.7769 72.2235 81.5795 72.6535 84.5998C72.8042 85.7577 72.7711 86.9413 72.8078 88.1139C72.8078 88.4815 72.6277 88.6653 72.2381 88.6653H67.3566C66.9376 88.6653 66.7832 88.4888 66.7795 88.0404C66.7795 86.8935 66.853 85.7393 66.5406 84.6182C65.678 81.5158 63.7066 79.5137 60.6262 78.6119C60.5278 78.5941 60.4283 78.5818 60.3285 78.5752Z" fill="white"/>
</svg>
