<svg width="60" height="60" viewBox="0 0 60 60" fill="none" xmlns="http://www.w3.org/2000/svg">
<path d="M10.9922 13.4297C10.4414 13.5586 10.793 13.5352 10.3359 13.5938C8.37891 14.0156 9.83203 14.3906 10.9922 13.4297ZM45.4102 14.2148C45.5508 14.1211 46.043 13.6406 44.5078 13.1719C44.6016 13.6523 44.1914 13.6055 44.1914 13.875C45.3281 14.9063 45.7969 16.6992 47.25 17.0742C47.5313 15.7852 45.9609 15.1523 45.4102 14.2148ZM9.94922 13.0547C10.125 14.0977 10.9102 11.9531 10.9219 11.1914C10.6172 11.3672 10.3125 11.543 9.99609 11.6836C10.7344 12.0586 10.0898 12.457 9.29297 13.0547C7.67578 15.0703 10.8047 11.4844 9.94922 13.0547ZM30 0C13.4297 0 0 13.4297 0 30C0 46.5586 13.4297 60 30 60C46.5703 60 60 46.5586 60 30C60 13.4297 46.5703 0 30 0ZM30.7969 10.0547L30.9375 10.1016C30.375 10.8281 33.8672 12.9492 31.3594 13.125C29.0156 13.793 32.3438 12.5156 30.5273 12.7383C31.4883 11.4023 29.7656 11.3789 30.7969 10.0547ZM16.5703 11.9766C15.7266 11.2734 13.0781 12.9375 14.0039 12.5391C16.3008 11.6367 14.1563 12.6328 14.6953 13.7109C14.2031 14.7305 14.5312 12.7031 13.3125 13.9102C12.4336 14.1094 10.2773 16.1016 10.5469 15.4922C10.4766 16.4414 7.98047 17.5664 7.64062 19.1484C6.82031 21.3398 7.44141 19.0664 7.28906 18.2109C6.11719 16.7227 3.98438 20.7305 4.61719 22.3125C5.68359 20.4375 5.60156 22.1133 4.82813 22.9453C5.61328 24.3867 4.11328 26.2617 5.60156 27.3281C6.25781 27.4805 7.57031 25.125 6.99609 27.5742C7.39453 25.4531 8.09766 28.0781 9.23438 27.4922C9.30469 28.6055 9.99609 28.0898 10.1484 29.4375C12.0469 29.2969 13.7813 32.5078 11.5195 33.1172C11.8594 33.0234 12.5273 33.6211 13.3008 33.1641C14.6133 34.207 18.0703 34.3359 18.1641 36.9141C15.7852 38.0508 17.5781 41.168 15.5156 42.2812C13.1484 41.9297 14.707 45.1992 13.7109 44.8242C14.1094 47.1797 11.3203 44.5195 12.3984 45.8203C14.3789 47.0391 11.5313 46.793 12.4219 47.6836C11.4258 47.4727 13.043 49.5352 13.3125 50.2969C14.7422 52.6172 12.082 49.7813 11.2969 49.0078C10.5469 47.5078 8.77734 44.6367 8.28516 42.2812C8.00391 38.8594 5.35547 36.5625 4.74609 33.2227C4.13672 31.3594 6.42187 28.3711 5.19141 27.3281C4.125 26.4961 4.55859 23.6484 3.92578 22.1484C5.50781 15.293 10.5352 9.51563 16.5703 6.09375C15.9492 6.55078 20.1211 4.91016 19.6406 5.30859C19.5117 5.60156 22.0781 4.19531 23.625 3.98438C23.4609 4.00781 19.6055 5.39063 20.6719 5.20313C19.0195 6.01172 20.5078 5.55469 21.3281 5.14453C19.6875 6.35156 18.4219 6.01172 16.5586 7.07813C14.6836 7.57031 15.0703 9.51562 13.7344 10.4883C14.5195 10.6289 16.4883 8.46094 17.6367 7.69922C20.2734 6.42187 16.3008 10.0195 18.8086 8.47266C17.9648 9.25781 18.1406 10.5117 17.625 10.8633C17.3672 10.793 18.6445 11.4727 16.5703 11.9766ZM20.6719 6.58594C20.4023 6.94922 20.0273 7.73438 19.8047 7.25391C19.5 7.40625 19.3828 8.0625 18.8086 7.53516C19.1484 7.28906 19.5 6.70312 18.832 7.06641C19.1367 6.73828 21.8555 5.8125 21.7031 5.46094C22.1836 5.15625 22.1367 5.00391 21.5859 5.19141C21.3047 5.09766 22.2539 4.30078 23.5195 4.19531C23.6953 4.19531 23.7656 4.3125 23.4492 4.27734C21.5391 4.86328 22.3594 4.69922 23.6484 4.27734C23.1563 4.55859 22.8164 4.64063 22.7344 4.76953C24.0234 4.30078 22.6641 5.10937 22.957 5.05078C22.5937 5.23828 23.0156 5.29688 22.3125 5.56641C22.4414 5.46094 21.1641 6.32812 21.9258 6.07031C21.1875 6.77344 20.8594 6.78516 20.6719 6.58594ZM21.7969 8.26172C21.8203 7.13672 23.4375 6.42187 23.2383 6.36328C25.2305 5.42578 22.5469 6.39844 24.1172 5.55469C24.7031 5.49609 25.9453 3.62109 27.668 3.50391C29.5664 2.92969 28.6875 3.53906 30.0937 3L29.8125 3.23438C29.5664 3.26953 29.8711 3.70313 28.9805 4.35938C28.8867 5.37891 27.2813 4.91016 28.0781 6C27.5625 5.26172 26.7891 5.97656 27.7617 6.04687C26.7187 6.84375 24.293 6.98438 23.1328 8.30859C22.3828 9.38672 21.6914 9.04687 21.7969 8.26172ZM30.1289 12.0117C29.332 13.9336 28.5586 11.7305 29.9648 11.3789C30.3164 11.5664 30.457 11.625 30.1289 12.0117ZM27.1289 8.16797C26.8945 7.30078 27.082 7.75781 28.4766 7.34766C29.4375 8.03906 27.6211 8.49609 27.1289 8.16797ZM48.9492 42.5625C47.8477 40.6641 50.2852 38.9062 51.1055 37.3125C51 39.1758 50.7656 41.0156 48.9492 42.5625ZM53.0977 20.8711C51.9023 20.9648 50.8242 21.2461 49.7461 20.5664C47.2617 17.8477 50.2031 23.6367 51.0234 21.2695C53.9766 22.3945 50.9766 27.2461 49.1133 26.7422C48.0703 24.4922 46.7812 22.0195 44.5078 20.918C46.2539 22.8516 47.1211 25.2305 48.9961 26.9766C49.125 29.4141 51.5977 26.0859 51.4453 27.9727C51.6797 31.2187 47.7773 33.1641 48.457 36.4219C49.9102 39.3867 45.6563 39.9258 46.1367 42.5859C44.4258 44.4961 42.5977 47.0742 39.5273 46.6641C39.5273 45.0469 38.707 43.6758 38.5195 42.0117C36.8555 39.9023 40.2773 37.6406 38.1563 35.4375C35.707 34.8867 38.6602 31.5117 36.1406 31.8281C34.6289 30.3164 32.4141 31.7812 30.2461 31.793C27.5273 32.0508 24.7266 28.4531 25.9336 25.9102C24.9727 23.2617 28.9805 22.4883 29.0859 20.1562C31.0078 18.5508 33.7383 18.75 36.3398 18.375C36.1523 20.2383 38.1211 20.25 39.6094 20.8711C40.4414 18.8555 43.0312 21.1992 44.8008 19.9219C45.4102 16.9453 43.0781 18.7383 41.7422 17.7891C40.125 15.4219 45.1992 16.5703 44.6719 15.3281C42.7031 15.3164 43.8164 12.9023 42.4219 14.25C43.6758 14.4727 42.1992 15.457 42.2344 14.332C40.3359 13.7813 42.1641 16.4883 41.2031 16.7461C39.7383 16.1367 40.4297 17.4375 40.582 17.6367C39.9492 19.0078 39.1758 15.6211 37.3828 15.7148C35.6016 14.0859 36.6797 16.4531 38.2266 16.8398C37.8984 16.9336 38.4141 18.2813 38.0039 17.707C36.7266 15.9492 34.3008 14.7773 32.8594 16.9336C32.707 18.9492 28.6055 19.5234 29.2617 17.168C28.3008 14.7305 32.2383 17.0977 31.875 15.1523C29.3437 13.4766 32.5664 14.0156 33.4219 12.4453C35.3672 12.5039 33.5039 10.8516 34.418 10.3711C34.3242 12.1641 35.9063 11.8242 37.1602 11.4844C36.8555 10.4531 37.9102 10.4883 37.2656 9.63281C40.1719 8.47266 35.0508 10.1719 36.082 7.62891C34.8281 6.76172 35.5547 9.53906 36.082 9.83203C36.1172 10.6875 35.3906 11.7422 34.3945 9.94922C32.9414 10.8984 33.0938 8.98828 33 9.1875C32.8359 8.44922 34.1016 8.41406 34.1133 7.125C34.0078 6.30469 34.0312 5.87109 34.6172 5.82422C34.6641 5.94141 37.0195 5.97656 37.8516 6.94922C35.5781 6.49219 37.5117 7.32422 38.5312 7.79297C37.4414 6.9375 38.9648 7.79297 38.0742 6.82031C38.4258 6.89063 37.1016 5.48437 38.4609 6.71484C37.7227 5.83594 39.9023 6.09375 38.6133 5.4375C40.5 5.96484 39.3867 5.48438 38.2734 5.00391C35.2031 3.17578 43.6992 7.47656 40.2305 5.56641C42.4453 6.04687 35.4961 3.85547 38.6602 4.81641C37.4531 4.28906 38.625 4.58203 39.7148 4.92188C37.7578 4.3125 34.8281 3.17578 34.9453 3.12891C35.625 3.17578 36.293 3.32812 36.9375 3.51562C38.9414 4.11328 36.3633 3.375 36.9141 3.38672C43.8047 5.15625 49.8398 9.77344 53.5078 15.8086C54.3633 16.7109 56.6953 22.6758 55.4766 20.0273C56.0273 22.1367 56.1094 24.4102 56.4023 26.5664C55.793 25.8867 55.1133 23.3789 54.5273 21.9844C54.2812 22.5234 54 21.2227 53.0977 20.8711Z" fill="#EE2D2A"/>
</svg>
