<svg width="225" height="225" viewBox="0 0 225 225" fill="none" xmlns="http://www.w3.org/2000/svg">
<rect x="48.833" y="7" width="127" height="211" rx="8.5" stroke="#EE2D2A"/>
<mask id="path-2-inside-1_482_1980" fill="white">
<path d="M49.333 15.5C49.333 11.0817 52.9147 7.5 57.333 7.5H167.333C171.751 7.5 175.333 11.0817 175.333 15.5V209.5C175.333 213.918 171.751 217.5 167.333 217.5H57.333C52.9147 217.5 49.333 213.918 49.333 209.5V15.5Z"/>
</mask>
<path d="M49.333 15.5C49.333 11.0817 52.9147 7.5 57.333 7.5H167.333C171.751 7.5 175.333 11.0817 175.333 15.5V209.5C175.333 213.918 171.751 217.5 167.333 217.5H57.333C52.9147 217.5 49.333 213.918 49.333 209.5V15.5Z" fill="#474B65" fill-opacity="0.5"/>
<path d="M49.333 15.5C49.333 2.24517 60.0782 -8.5 73.333 -8.5H151.333C164.588 -8.5 175.333 2.24517 175.333 15.5V23.5C175.333 23.5 171.751 23.5 167.333 23.5H57.333C52.9147 23.5 49.333 23.5 49.333 23.5V15.5ZM175.333 209.5C175.333 227.173 161.006 241.5 143.333 241.5H81.333C63.6599 241.5 49.333 227.173 49.333 209.5V193.5C49.333 193.5 52.9147 193.5 57.333 193.5H167.333C171.751 193.5 175.333 193.5 175.333 193.5V209.5ZM49.333 217.5V7.5V217.5ZM175.333 7.5V217.5V7.5Z" fill="#474B65" mask="url(#path-2-inside-1_482_1980)"/>
<circle cx="112.333" cy="205.5" r="8" fill="#868A9E"/>
<rect x="100.333" y="13.5" width="24" height="4" rx="2" fill="#868A9E"/>
<rect x="56.333" y="56.5" width="112" height="112" rx="12" fill="#474B65"/>
<path d="M152.909 105.642L143.614 103.448C142.936 101.104 142.019 98.8659 140.863 96.7733L145.876 88.6597C146.643 87.4176 146.455 85.8135 145.424 84.7823L140.051 79.4088C139.021 78.3794 137.419 78.1914 136.175 78.9587L128.065 83.9732C125.97 82.8174 123.733 81.8991 121.39 81.2226L119.196 71.9225C118.86 70.5048 117.592 69.5 116.134 69.5H108.535C107.077 69.5 105.811 70.5048 105.475 71.9225L103.28 81.2227C100.936 81.8993 98.6989 82.8147 96.6061 83.9734L88.4926 78.956C87.2519 78.1916 85.6463 78.378 84.6152 79.409L79.2418 84.781C78.2124 85.8118 78.0244 87.4191 78.7902 88.6581L83.8062 96.7731C82.6504 98.8657 81.732 101.103 81.0571 103.444L71.7555 105.639C70.3378 105.978 69.333 107.243 69.333 108.702V116.3C69.333 117.758 70.3378 119.027 71.7555 119.362L81.0573 121.556C81.7338 123.898 82.6506 126.134 83.8064 128.226L78.7888 136.342C78.0244 137.584 78.2108 139.19 79.2418 140.223L84.6138 145.593C85.6448 146.626 87.2519 146.812 88.4909 146.045L96.6075 141.027C98.7019 142.184 100.939 143.101 103.28 143.776L105.475 153.076C105.811 154.499 107.077 155.5 108.535 155.5H116.134C117.592 155.5 118.86 154.498 119.196 153.076L121.39 143.776C123.731 143.101 125.969 142.184 128.06 141.027L136.175 146.043C137.419 146.811 139.021 146.623 140.054 145.592L145.426 140.218C146.455 139.189 146.643 137.583 145.876 136.341L140.86 128.227C142.018 126.136 142.934 123.898 143.61 121.556L152.911 119.361C154.333 119.026 155.333 117.759 155.333 116.3V108.701C155.333 107.245 154.331 105.978 152.909 105.642ZM112.332 136.237C99.2305 136.237 88.5989 125.606 88.5989 112.499C88.5989 99.3914 99.2307 88.7614 112.332 88.7614C125.439 88.7614 136.07 99.3914 136.07 112.499C136.07 125.606 125.439 136.237 112.332 136.237Z" fill="#DADEEA"/>
<path d="M112.334 99.8193C105.335 99.8193 99.6577 105.498 99.6577 112.499C99.6577 119.5 105.335 125.179 112.334 125.179C119.335 125.179 125.014 119.5 125.014 112.499C125.014 105.498 119.335 99.8193 112.334 99.8193Z" fill="#868A9E"/>
</svg>
