<svg width="224" height="225" viewBox="0 0 224 225" fill="none" xmlns="http://www.w3.org/2000/svg">
<circle cx="112" cy="112.5" r="104.5" fill="#474B65" fill-opacity="0.5" stroke="#EE2D2A"/>
<circle cx="112" cy="112.5" r="77" fill="#474B65"/>
<path d="M93.4163 107.125L90.833 115.133H95.9997L93.4163 107.125Z" fill="#868A9E"/>
<path d="M143.275 72.25H101.942V85.1667H112.275V90.3333H78.6919C74.3002 90.3333 70.9419 93.6917 70.9419 98.0833V126.5C70.9419 130.892 74.3002 134.25 78.6919 134.25H81.2752V147.425L97.5502 134.25H114.859V116.167H143.275C147.667 116.167 151.025 112.808 151.025 108.417V80C151.025 75.6083 147.667 72.25 143.275 72.25ZM98.8419 123.658L97.5502 119.525H89.5419L87.9919 123.658H81.7919L90.3169 100.667H96.5169L105.042 123.658H98.8419ZM138.109 103.25V108.417C134.75 108.417 131.134 107.383 128.034 105.833C124.934 107.383 121.317 108.158 117.7 108.417L117.442 103.25C119.25 103.25 121.059 102.992 122.867 102.475C120.542 100.15 118.992 97.3083 118.217 94.2083H123.642C124.417 96.5333 125.967 98.3417 127.775 99.8917C130.617 97.5667 132.425 94.2083 132.684 90.3333H117.184V85.1667H124.934V80H130.1V85.1667H138.625L138.884 87.75C139.142 93.175 137.075 98.6 133.2 102.475C135.009 102.992 136.559 103.25 138.109 103.25Z" fill="#DADEEA"/>
<circle cx="139" cy="140.5" r="21" fill="#DADEEA"/>
<path d="M139 121.5C149.493 121.5 158 130.007 158 140.5C158 150.993 149.493 159.5 139 159.5C128.507 159.5 120 150.993 120 140.5C120 130.007 128.507 121.5 139 121.5ZM139 129.1C138.026 129.1 137.223 129.833 137.113 130.778L137.1 131V132.9H135.2C132.577 132.9 130.45 135.027 130.45 137.65C130.45 140.168 132.41 142.229 134.888 142.39L135.2 142.4H137.1V144.3H133.3C132.251 144.3 131.4 145.151 131.4 146.2C131.4 147.174 132.133 147.977 133.078 148.087L133.3 148.1H137.1V150C137.1 151.049 137.951 151.9 139 151.9C139.974 151.9 140.777 151.167 140.887 150.222L140.9 150V148.1H142.8C145.423 148.1 147.55 145.973 147.55 143.35C147.55 140.832 145.59 138.771 143.112 138.61L142.8 138.6H140.9V136.7H144.7C145.749 136.7 146.6 135.849 146.6 134.8C146.6 133.826 145.867 133.023 144.922 132.913L144.7 132.9H140.9V131C140.9 129.951 140.049 129.1 139 129.1ZM142.8 142.4C143.325 142.4 143.75 142.825 143.75 143.35C143.75 143.875 143.325 144.3 142.8 144.3H140.9V142.4H142.8ZM137.1 136.7V138.6H135.2C134.675 138.6 134.25 138.175 134.25 137.65C134.25 137.125 134.675 136.7 135.2 136.7H137.1Z" fill="#474B65"/>
</svg>
