<svg width="225" height="225" viewBox="0 0 225 225" fill="none" xmlns="http://www.w3.org/2000/svg">
<path d="M17.333 17.5L207.333 207.5M17.333 17.5H69.2402M17.333 17.5V69.4072M17.333 207.5L207.333 17.5M17.333 207.5V155.593M17.333 207.5H69.2402M207.333 207.5H155.426M207.333 207.5V155.593M207.333 17.5H155.426M207.333 17.5V69.4072" stroke="#EE2D2A"/>
<rect x="17.333" y="17.5" width="190" height="190" fill="#474B65" fill-opacity="0.5"/>
<rect x="46.333" y="46.5" width="132" height="132" fill="#474B65"/>
<rect x="136.272" y="87.5" width="16.0612" height="60" rx="4" fill="#DADEEA"/>
<rect x="114.759" y="107.5" width="16.0612" height="40" rx="4" fill="#DADEEA"/>
<rect x="93.5454" y="113.5" width="16.0612" height="34" rx="4" fill="#DADEEA"/>
<rect x="72.333" y="115.5" width="16" height="32" rx="4" fill="#DADEEA"/>
<path d="M127.833 77.5H106.833L113.333 84C112.333 85 104.932 91.8288 93.833 95C83.333 98 74.4997 95.1667 72.333 93.5C74.6663 97.3333 80.333 105.603 95.833 104C109.833 102.552 120.333 93 121.333 92L127.833 98.5V77.5Z" fill="#868A9E"/>
</svg>
