<svg width="225" height="225" viewBox="0 0 225 225" fill="none" xmlns="http://www.w3.org/2000/svg">
<path d="M202.667 164.996V60.0038L112.659 7.5L22.6665 60.0038V164.996L112.659 217.5L202.667 164.996Z" fill="#474B65" fill-opacity="0.5" stroke="#EE2D2A" stroke-miterlimit="10"/>
<path d="M178.666 151.004V73.9962L112.659 35.5L46.6665 73.9962V151.004L112.659 189.5L178.666 151.004Z" fill="#474B65"/>
<g clip-path="url(#clip0_482_747)">
<path d="M137.667 96.5H132.667V86.5C132.667 75.455 123.712 66.5 112.667 66.5C101.622 66.5 92.6665 75.455 92.6665 86.5V96.5H87.6665C84.9028 96.5 82.6665 98.7363 82.6665 101.5V141.5C82.6665 144.264 84.9028 146.5 87.6665 146.5H137.667C140.43 146.5 142.667 144.264 142.667 141.5V101.5C142.667 98.7363 140.43 96.5 137.667 96.5ZM112.667 126.5C109.903 126.5 107.667 124.264 107.667 121.5C107.667 118.736 109.903 116.5 112.667 116.5C115.43 116.5 117.667 118.736 117.667 121.5C117.667 124.264 115.43 126.5 112.667 126.5ZM122.667 96.5H102.667V86.5C102.667 80.9775 107.144 76.5 112.667 76.5C118.189 76.5 122.667 80.9775 122.667 86.5V96.5Z" fill="#DADEEA"/>
<path d="M132.667 86.5V96.5H122.667V86.5C122.667 80.9775 118.189 76.5 112.667 76.5C107.144 76.5 102.667 80.9775 102.667 86.5V96.5H92.6665V86.5C92.6665 75.455 101.622 66.5 112.667 66.5C123.712 66.5 132.667 75.455 132.667 86.5Z" fill="#868A9E"/>
<circle cx="112.667" cy="118.5" r="8" fill="#474B65"/>
<rect x="109.667" y="124.5" width="6" height="10" rx="2" fill="#474B65"/>
</g>
<defs>
<clipPath id="clip0_482_747">
<rect width="80" height="80" fill="white" transform="translate(72.6665 66.5)"/>
</clipPath>
</defs>
</svg>
